<svg viewBox="0 0 420 403" fill="none" xmlns="http://www.w3.org/2000/svg">
<path fill-rule="evenodd" clip-rule="evenodd" d="M153.754 60.2827C185.843 49.5908 215.751 80.4998 248.495 88.9816C281.701 97.5829 322.056 86.2765 346.605 110.237C371.61 134.643 371.551 174.402 371.812 209.343C372.063 242.93 370.842 280.049 348.06 304.725C326.22 328.38 288.271 321.477 258.046 332.566C228.478 343.414 204.449 373.565 173.309 368.837C141.582 364.021 122.663 332.537 101.125 308.743C78.1487 283.361 45.4799 260.47 44.243 226.255C43.0084 192.107 76.2115 168.635 95.029 140.116C113.679 111.85 121.628 70.987 153.754 60.2827Z" fill="#FFEEF3"/>
</svg>
