<svg width="36" height="34" viewBox="0 0 36 34" fill="none" xmlns="http://www.w3.org/2000/svg">
<path fill-rule="evenodd" clip-rule="evenodd" d="M18 9.25C18.4246 9.25 18.7688 9.58579 18.7688 10V16.25H25.175C25.5996 16.25 25.9438 16.5858 25.9438 17C25.9438 17.4142 25.5996 17.75 25.175 17.75H18.7688V24C18.7688 24.4142 18.4246 24.75 18 24.75C17.5755 24.75 17.2313 24.4142 17.2313 24V17.75H10.825C10.4005 17.75 10.0563 17.4142 10.0563 17C10.0563 16.5858 10.4005 16.25 10.825 16.25H17.2313V10C17.2313 9.58579 17.5755 9.25 18 9.25Z" fill="#F3ADC8"/>
<path d="M34.4249 17C34.4249 25.8134 27.0946 33 18 33C8.90525 33 1.57495 25.8134 1.57495 17C1.57495 8.18658 8.90525 1 18 1C27.0946 1 34.4249 8.18658 34.4249 17Z" stroke="#F3ADC8" stroke-width="2"/>
</svg>
