<svg width="16" height="16" viewBox="0 0 16 16" fill="none" xmlns="http://www.w3.org/2000/svg">
<path fill-rule="evenodd" clip-rule="evenodd" d="M8.00002 0.25C8.42459 0.25 8.76877 0.585786 8.76877 1V7.25H15.175C15.5996 7.25 15.9438 7.58579 15.9438 8C15.9438 8.41421 15.5996 8.75 15.175 8.75H8.76877V15C8.76877 15.4142 8.42459 15.75 8.00002 15.75C7.57546 15.75 7.23127 15.4142 7.23127 15V8.75H0.825024C0.400455 8.75 0.0562744 8.41421 0.0562744 8C0.0562744 7.58579 0.400455 7.25 0.825024 7.25H7.23127V1C7.23127 0.585786 7.57546 0.25 8.00002 0.25Z" fill="#F3ADC8"/>
</svg>
