<svg width="226" height="240" viewBox="0 0 226 240" fill="none" xmlns="http://www.w3.org/2000/svg">
<path d="M2.71344 84.1702C15.0205 124.017 53.233 125.891 88.0873 128.023C202.869 135.044 58.5552 230.298 156.852 239.728C193.009 243.197 230.814 213.03 225.096 173.967C219.89 138.398 168.306 117.214 168.281 83.9766C168.26 57.7524 216.965 38.7849 185.283 10.5924C157.042 -14.5383 -22.3122 3.14486 2.71344 84.1702V84.1702Z" fill="url(#paint0_linear)"/>
<path opacity="0.5" d="M31.4375 92.7661C30.838 92.7661 30.2375 92.5374 29.7805 92.0799L24.6242 86.9236C23.7088 86.0081 23.7088 84.5241 24.6242 83.6091L29.7805 78.4528C30.695 77.5378 32.18 77.5378 33.0945 78.4528L38.2508 83.6091C39.1663 84.5245 39.1663 86.0086 38.2508 86.9236L33.0945 92.0799C32.6375 92.5374 32.037 92.7661 31.4375 92.7661ZM29.5958 85.2661L31.4375 87.1078L33.2792 85.2661L31.4375 83.4249L29.5958 85.2661Z" fill="#5EBDE4"/>
<path opacity="0.5" d="M198.781 100.335C198.16 100.335 197.563 100.088 197.124 99.6483L191.968 94.4916C191.528 94.0519 191.281 93.4561 191.281 92.8341C191.281 92.2125 191.528 91.6162 191.968 91.1766L197.124 86.0208C198.039 85.1058 199.524 85.1058 200.438 86.0208L205.595 91.177C206.51 92.0925 206.51 93.5766 205.595 94.4916L200.438 99.6478C199.999 100.088 199.403 100.335 198.781 100.335ZM196.94 92.8341L198.781 94.6758L200.623 92.8341L198.781 90.9928L196.94 92.8341Z" fill="#F3ADC8"/>
<path opacity="0.5" d="M26.2812 152.045C24.9866 152.045 23.9375 150.996 23.9375 149.701C23.9375 148.15 22.6761 146.889 21.125 146.889C19.8303 146.889 18.7812 145.839 18.7812 144.545C18.7812 143.251 19.8303 142.201 21.125 142.201C22.6761 142.201 23.9375 140.94 23.9375 139.389C23.9375 138.095 24.9866 137.045 26.2812 137.045C27.5759 137.045 28.625 138.095 28.625 139.389C28.625 140.94 29.8864 142.201 31.4375 142.201C32.7322 142.201 33.7812 143.251 33.7812 144.545C33.7812 145.839 32.7322 146.889 31.4375 146.889C29.8864 146.889 28.625 148.15 28.625 149.701C28.625 150.996 27.5759 152.045 26.2812 152.045Z" fill="#F3ADC8"/>
<path opacity="0.5" d="M206.281 208.025C204.987 208.025 203.938 206.976 203.938 205.681C203.938 204.13 202.676 202.869 201.125 202.869C199.83 202.869 198.781 201.819 198.781 200.525C198.781 199.231 199.83 198.181 201.125 198.181C202.676 198.181 203.938 196.92 203.938 195.369C203.938 194.075 204.987 193.025 206.281 193.025C207.576 193.025 208.625 194.075 208.625 195.369C208.625 196.92 209.886 198.181 211.438 198.181C212.732 198.181 213.781 199.231 213.781 200.525C213.781 201.819 212.732 202.869 211.438 202.869C209.886 202.869 208.625 204.13 208.625 205.681C208.625 206.976 207.576 208.025 206.281 208.025Z" fill="#5EBDE4"/>
<path d="M174.186 30.1946V207.345C174.186 215.112 167.891 221.407 160.123 221.407H65.8766C58.1094 221.407 51.8141 215.112 51.8141 207.345V30.1946C51.8141 22.4274 58.1094 16.132 65.8766 16.132H160.123C167.891 16.132 174.186 22.4274 174.186 30.1946V30.1946Z" fill="white"/>
<path d="M139.059 26.8852L142.414 16.1325H83.5859L86.9408 26.8852C87.5516 28.8431 89.3647 30.1767 91.4155 30.1767H134.584C136.635 30.1763 138.448 28.8431 139.059 26.8852Z" fill="#5EBDE4"/>
<path d="M93.8745 87.5387C100.933 80.4801 100.933 69.0359 93.8745 61.9773C86.816 54.9187 75.3718 54.9187 68.3132 61.9773C61.2546 69.0359 61.2546 80.4801 68.3132 87.5386C75.3718 94.5972 86.816 94.5972 93.8745 87.5387Z" fill="#F3ADC8"/>
<path d="M88.8988 72.0352C88.8988 67.741 85.4052 64.2479 81.1114 64.2479C76.8172 64.2479 73.3241 67.7415 73.3241 72.0352C73.3241 74.153 74.1763 76.0735 75.553 77.4788C74.1767 78.8841 73.3241 80.8046 73.3241 82.9224C73.3241 84.2166 74.3736 85.2661 75.6678 85.2661C76.962 85.2661 78.0116 84.2166 78.0116 82.9224C78.0116 81.2133 79.4023 79.8225 81.1114 79.8225C82.8205 79.8225 84.2113 81.2133 84.2113 82.9224C84.2113 84.2166 85.2608 85.2661 86.555 85.2661C87.8492 85.2661 88.8988 84.2166 88.8988 82.9224C88.8988 80.8046 88.0466 78.8841 86.6698 77.4788C88.0466 76.0735 88.8988 74.153 88.8988 72.0352ZM81.1114 68.9349C82.8205 68.9349 84.2113 70.3257 84.2113 72.0347C84.2113 73.7438 82.8205 75.1346 81.1114 75.1346C79.4023 75.1346 78.0116 73.7438 78.0116 72.0347C78.0116 70.3257 79.4019 68.9349 81.1114 68.9349Z" fill="white"/>
<path d="M137.966 205.213H88.0344C86.7397 205.213 85.6906 204.163 85.6906 202.869C85.6906 201.575 86.7397 200.525 88.0344 200.525H137.966C139.26 200.525 140.309 201.575 140.309 202.869C140.309 204.163 139.26 205.213 137.966 205.213Z" fill="#61BCE4"/>
<path d="M160.623 49.275H124.754C123.459 49.275 122.41 48.2255 122.41 46.9313C122.41 45.6371 123.459 44.5875 124.754 44.5875H160.623C161.917 44.5875 162.966 45.6371 162.966 46.9313C162.966 48.2255 161.917 49.275 160.623 49.275Z" fill="#5EBDE4"/>
<path d="M77.2967 29.4122H68.3905C67.0963 29.4122 66.0467 28.3627 66.0467 27.0685V24.7336C66.0467 23.4394 67.0963 22.3899 68.3905 22.3899H77.2967C78.5914 22.3899 79.6405 23.4394 79.6405 24.7336V27.0685C79.6405 28.3627 78.5914 29.4122 77.2967 29.4122Z" fill="#F3FAFF"/>
<path d="M150.461 29.0649C149.167 29.0649 148.117 28.0153 148.117 26.7211V25.0805C148.117 23.7863 149.167 22.7368 150.461 22.7368C151.755 22.7368 152.805 23.7863 152.805 25.0805V26.7211C152.805 28.0158 151.755 29.0649 150.461 29.0649Z" fill="#F3FAFF"/>
<path d="M157.61 29.0649C156.315 29.0649 155.266 28.0153 155.266 26.7211V25.0805C155.266 23.7863 156.315 22.7368 157.61 22.7368C158.904 22.7368 159.953 23.7863 159.953 25.0805V26.7211C159.953 28.0158 158.904 29.0649 157.61 29.0649Z" fill="#F3FAFF"/>
<path d="M160.623 84.2906H110.691C109.397 84.2906 108.348 83.2411 108.348 81.9469C108.348 80.6527 109.397 79.6031 110.691 79.6031H160.622C161.917 79.6031 162.966 80.6527 162.966 81.9469C162.966 83.2411 161.917 84.2906 160.623 84.2906Z" fill="#61BCE3"/>
<path d="M110.691 75.263C109.397 75.263 108.348 74.2135 108.348 72.9193V71.2786C108.348 69.9844 109.397 68.9349 110.691 68.9349C111.986 68.9349 113.035 69.9844 113.035 71.2786V72.9193C113.035 74.2139 111.986 75.263 110.691 75.263Z" fill="#B7C5FF"/>
<path d="M117.84 75.263C116.546 75.263 115.496 74.2135 115.496 72.9193V71.2786C115.496 69.9844 116.546 68.9349 117.84 68.9349C119.134 68.9349 120.184 69.9844 120.184 71.2786V72.9193C120.184 74.2139 119.135 75.263 117.84 75.263Z" fill="#B7C5FF"/>
<path d="M132.137 75.263C130.843 75.263 129.793 74.2135 129.793 72.9193V71.2786C129.793 69.9844 130.843 68.9349 132.137 68.9349C133.431 68.9349 134.481 69.9844 134.481 71.2786V72.9193C134.481 74.2139 133.431 75.263 132.137 75.263Z" fill="#B7C5FF"/>
<path d="M139.285 75.263C137.991 75.263 136.941 74.2135 136.941 72.9193V71.2786C136.941 69.9844 137.991 68.9349 139.285 68.9349C140.579 68.9349 141.629 69.9844 141.629 71.2786V72.9193C141.629 74.2139 140.58 75.263 139.285 75.263Z" fill="#B7C5FF"/>
<path d="M146.434 75.263C145.139 75.263 144.09 74.2135 144.09 72.9193V71.2786C144.09 69.9844 145.139 68.9349 146.434 68.9349C147.728 68.9349 148.777 69.9844 148.777 71.2786V72.9193C148.777 74.2139 147.728 75.263 146.434 75.263Z" fill="#B7C5FF"/>
<path d="M153.582 75.263C152.288 75.263 151.238 74.2135 151.238 72.9193V71.2786C151.238 69.9844 152.288 68.9349 153.582 68.9349C154.876 68.9349 155.926 69.9844 155.926 71.2786V72.9193C155.926 74.2139 154.877 75.263 153.582 75.263Z" fill="#B7C5FF"/>
<path d="M160.731 75.263C159.436 75.263 158.387 74.2135 158.387 72.9193V71.2786C158.387 69.9844 159.436 68.9349 160.731 68.9349C162.025 68.9349 163.074 69.9844 163.074 71.2786V72.9193C163.074 74.2139 162.025 75.263 160.731 75.263Z" fill="#B7C5FF"/>
<path d="M93.8698 131.467C100.928 124.408 100.928 112.964 93.8698 105.906C86.8112 98.8471 75.367 98.8471 68.3084 105.906C61.2499 112.964 61.2499 124.408 68.3085 131.467C75.367 138.526 86.8112 138.526 93.8698 131.467Z" fill="#F3ADC8"/>
<path d="M88.8988 115.968C88.8988 111.674 85.4052 108.18 81.1114 108.18C76.8172 108.18 73.3241 111.674 73.3241 115.968C73.3241 118.086 74.1763 120.006 75.553 121.411C74.1768 122.817 73.3241 124.737 73.3241 126.855C73.3241 128.149 74.3736 129.199 75.6678 129.199C76.9621 129.199 78.0116 128.149 78.0116 126.855C78.0116 125.146 79.4024 123.755 81.1114 123.755C82.8205 123.755 84.2113 125.146 84.2113 126.855C84.2113 128.149 85.2608 129.199 86.555 129.199C87.8493 129.199 88.8988 128.149 88.8988 126.855C88.8988 124.737 88.0466 122.817 86.6699 121.411C88.0466 120.007 88.8988 118.086 88.8988 115.968V115.968ZM81.1114 112.868C82.8205 112.868 84.2113 114.259 84.2113 115.968C84.2113 117.677 82.8205 119.068 81.1114 119.068C79.4024 119.068 78.0116 117.677 78.0116 115.968C78.0116 114.259 79.4019 112.868 81.1114 112.868Z" fill="white"/>
<path d="M160.623 128.224H110.691C109.397 128.224 108.348 127.174 108.348 125.88C108.348 124.586 109.397 123.536 110.691 123.536H160.622C161.917 123.536 162.966 124.586 162.966 125.88C162.966 127.174 161.917 128.224 160.623 128.224Z" fill="#5EBDE4"/>
<path d="M110.691 119.196C109.397 119.196 108.348 118.147 108.348 116.852V115.212C108.348 113.918 109.397 112.868 110.691 112.868C111.986 112.868 113.035 113.918 113.035 115.212V116.852C113.035 118.147 111.986 119.196 110.691 119.196Z" fill="#B7C5FF"/>
<path d="M117.84 119.196C116.546 119.196 115.496 118.147 115.496 116.852V115.212C115.496 113.918 116.546 112.868 117.84 112.868C119.134 112.868 120.184 113.918 120.184 115.212V116.852C120.184 118.147 119.135 119.196 117.84 119.196Z" fill="#B7C5FF"/>
<path d="M132.137 119.196C130.843 119.196 129.793 118.147 129.793 116.852V115.212C129.793 113.918 130.843 112.868 132.137 112.868C133.431 112.868 134.481 113.918 134.481 115.212V116.852C134.481 118.147 133.431 119.196 132.137 119.196Z" fill="#B7C5FF"/>
<path d="M139.285 119.196C137.991 119.196 136.941 118.147 136.941 116.852V115.212C136.941 113.918 137.991 112.868 139.285 112.868C140.579 112.868 141.629 113.918 141.629 115.212V116.852C141.629 118.147 140.58 119.196 139.285 119.196Z" fill="#B7C5FF"/>
<path d="M146.434 119.196C145.139 119.196 144.09 118.147 144.09 116.852V115.212C144.09 113.918 145.139 112.868 146.434 112.868C147.728 112.868 148.777 113.918 148.777 115.212V116.852C148.777 118.147 147.728 119.196 146.434 119.196Z" fill="#B7C5FF"/>
<path d="M153.582 119.196C152.288 119.196 151.238 118.147 151.238 116.852V115.212C151.238 113.918 152.288 112.868 153.582 112.868C154.876 112.868 155.926 113.918 155.926 115.212V116.852C155.926 118.147 154.877 119.196 153.582 119.196Z" fill="#B7C5FF"/>
<path d="M160.731 119.196C159.436 119.196 158.387 118.147 158.387 116.852V115.212C158.387 113.918 159.436 112.868 160.731 112.868C162.025 112.868 163.074 113.918 163.074 115.212V116.852C163.074 118.147 162.025 119.196 160.731 119.196Z" fill="#B7C5FF"/>
<path d="M98.682 166.843C100.978 157.128 94.9648 147.392 85.2506 145.096C75.5363 142.799 65.7998 148.813 63.5035 158.527C61.2072 168.241 67.2207 177.978 76.935 180.274C86.6493 182.57 96.3857 176.557 98.682 166.843Z" fill="#F3ADC8"/>
<path d="M88.8988 159.901C88.8988 155.607 85.4052 152.114 81.1114 152.114C76.8172 152.114 73.3241 155.607 73.3241 159.901C73.3241 162.019 74.1763 163.939 75.553 165.345C74.1767 166.75 73.3241 168.67 73.3241 170.788C73.3241 172.082 74.3736 173.132 75.6678 173.132C76.962 173.132 78.0116 172.082 78.0116 170.788C78.0116 169.079 79.4023 167.688 81.1114 167.688C82.8205 167.688 84.2113 169.079 84.2113 170.788C84.2113 172.082 85.2608 173.132 86.555 173.132C87.8492 173.132 88.8988 172.082 88.8988 170.788C88.8988 168.67 88.0466 166.75 86.6698 165.345C88.0466 163.939 88.8988 162.019 88.8988 159.901ZM81.1114 156.801C82.8205 156.801 84.2113 158.192 84.2113 159.901C84.2113 161.61 82.8205 163.001 81.1114 163.001C79.4023 163.001 78.0116 161.61 78.0116 159.901C78.0111 158.192 79.4019 156.801 81.1114 156.801Z" fill="white"/>
<path d="M160.623 172.156H110.691C109.397 172.156 108.348 171.107 108.348 169.813C108.348 168.518 109.397 167.469 110.691 167.469H160.622C161.917 167.469 162.966 168.518 162.966 169.813C162.966 171.107 161.917 172.156 160.623 172.156Z" fill="#61BCE4"/>
<path d="M110.691 163.129C109.397 163.129 108.348 162.08 108.348 160.785V159.145C108.348 157.851 109.397 156.801 110.691 156.801C111.986 156.801 113.035 157.851 113.035 159.145V160.785C113.035 162.08 111.986 163.129 110.691 163.129Z" fill="#B7C5FF"/>
<path d="M117.84 163.129C116.546 163.129 115.496 162.08 115.496 160.785V159.145C115.496 157.851 116.546 156.801 117.84 156.801C119.134 156.801 120.184 157.851 120.184 159.145V160.785C120.184 162.08 119.135 163.129 117.84 163.129Z" fill="#B7C5FF"/>
<path d="M132.137 163.129C130.843 163.129 129.793 162.08 129.793 160.785V159.145C129.793 157.851 130.843 156.801 132.137 156.801C133.431 156.801 134.481 157.851 134.481 159.145V160.785C134.481 162.08 133.431 163.129 132.137 163.129Z" fill="#B7C5FF"/>
<path d="M139.285 163.129C137.991 163.129 136.941 162.08 136.941 160.785V159.145C136.941 157.851 137.991 156.801 139.285 156.801C140.579 156.801 141.629 157.851 141.629 159.145V160.785C141.629 162.08 140.58 163.129 139.285 163.129Z" fill="#B7C5FF"/>
<path d="M146.434 163.129C145.139 163.129 144.09 162.08 144.09 160.785V159.145C144.09 157.851 145.139 156.801 146.434 156.801C147.728 156.801 148.777 157.851 148.777 159.145V160.785C148.777 162.08 147.728 163.129 146.434 163.129Z" fill="#B7C5FF"/>
<path d="M153.582 163.129C152.288 163.129 151.238 162.08 151.238 160.785V159.145C151.238 157.851 152.288 156.801 153.582 156.801C154.876 156.801 155.926 157.851 155.926 159.145V160.785C155.926 162.08 154.877 163.129 153.582 163.129Z" fill="#B7C5FF"/>
<path d="M160.731 163.129C159.436 163.129 158.387 162.08 158.387 160.785V159.145C158.387 157.851 159.436 156.801 160.731 156.801C162.025 156.801 163.074 157.851 163.074 159.145V160.785C163.074 162.08 162.025 163.129 160.731 163.129Z" fill="#B7C5FF"/>
<path d="M174.186 30.1946V207.345C174.186 215.112 167.891 221.407 160.123 221.407H65.8766C58.1094 221.407 51.8141 215.112 51.8141 207.345V30.1946C51.8141 22.4274 58.1094 16.132 65.8766 16.132H160.123C167.891 16.132 174.186 22.4274 174.186 30.1946Z" fill="url(#paint1_linear)"/>
<defs>
<linearGradient id="paint0_linear" x1="0.326568" y1="120" x2="225.673" y2="120" gradientUnits="userSpaceOnUse">
<stop offset="0.0485" stop-color="#F3FAFF"/>
<stop offset="0.9993" stop-color="#FFEEF3"/>
</linearGradient>
<linearGradient id="paint1_linear" x1="113" y1="16.1325" x2="113" y2="221.408" gradientUnits="userSpaceOnUse">
<stop offset="0.0028" stop-color="#F3ADC8" stop-opacity="0"/>
<stop offset="1" stop-color="#F3ADC8" stop-opacity="0.09"/>
</linearGradient>
</defs>
</svg>
