<svg width="198" height="240" viewBox="0 0 198 240" fill="none" xmlns="http://www.w3.org/2000/svg">
<path d="M24.5372 17.9213C-38.8978 73.9547 42.7392 128.269 34.9636 189.497C31.5065 216.718 42.4889 242.741 78.4191 239.768C122.206 236.143 106.312 194.201 115.481 166.278C131.259 118.23 228.323 129.453 188.088 55.4428C162.411 8.21252 68.1975 -20.6451 24.5372 17.9213Z" fill="url(#paint0_linear)"/>
<path d="M165.007 98.5669C165.007 127.142 124.359 190.667 106.93 216.593C103.213 222.123 95.0812 222.123 91.3636 216.593C73.935 190.667 33.2878 127.142 33.2878 98.5669C33.2878 62.1938 62.774 32.7076 99.1472 32.7076C135.52 32.7076 165.007 62.1938 165.007 98.5669Z" fill="#F3ADC8"/>
<path d="M99.1467 146.418C125.574 146.418 146.998 124.995 146.998 98.5669C146.998 72.1393 125.574 50.7155 99.1467 50.7155C72.7191 50.7155 51.2953 72.1393 51.2953 98.5669C51.2953 124.995 72.7191 146.418 99.1467 146.418Z" fill="#F3FAFF"/>
<path d="M87.9619 138.998C87.683 140.341 88.1259 143.139 88.1306 145.142C83.0016 143.934 78.1936 141.902 73.8502 139.191C72.2475 134.963 73.0547 130.732 72.8981 125.831C72.6755 118.916 68.4938 118.578 63.3891 115.461C59.1338 112.86 55.2258 110.231 52.0744 107.207C51.563 104.405 51.2963 101.518 51.2963 98.5669C51.2963 89.0166 54.0933 80.1216 58.9163 72.6535C59.7553 73.7326 60.9816 74.0701 63.0469 74.1633C64.3219 72.8738 65.6677 72.563 67.087 73.231C67.2877 73.6937 67.4883 74.1558 67.6889 74.6185C67.5764 75.646 67.8628 76.5418 68.5453 77.3077C70.0233 77.5327 71.4549 77.3518 72.8424 76.7644C74.932 76.3412 77.2374 74.9415 79.3734 74.873C88.0749 74.5965 82.53 80.6162 79.897 84.4773C76.8895 88.8915 75.5367 95.1437 69.9647 97.1916C65.8903 98.6893 60.9253 96.646 60.7374 103.064C60.5883 108.127 66.4584 113.5 70.8849 115.022C76.3022 116.882 83.2739 114.124 88.5398 117.31C92.4966 119.703 91.4175 127.529 90.4411 132.146C89.9414 134.506 88.4634 136.573 87.9619 138.998Z" fill="#5EBDE4"/>
<path d="M94.3387 62.1779C93.135 63.9643 91.2703 65.3808 90.6928 67.4536C90.0764 69.6633 90.9642 72.4257 89.347 74.0508C86.8439 72.3577 85.755 69.1224 85.8623 66.1055C85.9284 64.3168 86.1975 62.1563 84.7561 61.0941C83.4787 60.1519 81.1809 60.4186 80.7333 58.8943C80.5425 58.2436 80.8336 57.5143 80.6062 56.8754C80.3592 56.1732 79.5932 55.8258 79.0303 55.3388C78.9815 55.2971 78.9347 55.2507 78.8906 55.2019C84.1954 52.7208 90.029 51.1838 96.1758 50.8069C96.3965 54.7168 96.5264 58.9332 94.3387 62.1779Z" fill="#5EBDE4"/>
<path d="M146.998 98.5669C146.998 117.92 135.509 134.589 118.982 142.126C119.596 140.297 120.788 138.556 121.686 136.808C123.264 133.737 124.006 130.302 124.41 126.873C124.625 125.043 124.554 122.799 122.966 121.864C122.138 121.377 121.123 121.404 120.164 121.389C118.468 121.363 116.777 121.157 115.126 120.775C113.355 120.364 111.531 119.689 110.393 118.267C108.695 116.143 109.03 113.099 109.451 110.412C109.884 107.652 110.317 104.894 110.751 102.134C111.105 99.8658 111.756 97.2085 113.897 96.3713C115.363 95.7985 116.998 96.3249 118.568 96.4421C123.186 96.7824 127.475 93.5035 132.097 93.7482C132.908 93.7922 133.734 93.9413 134.515 93.7285C135.075 93.5743 135.575 93.2391 135.998 92.8402C138.428 90.5668 138.347 86.7057 137.638 83.4535C137.327 82.0271 136.898 80.559 135.907 79.4869C134.914 78.4126 133.206 77.8744 131.948 78.6207C129.927 79.8197 130.14 83.4193 127.908 84.1604C125.939 84.8115 123.902 82.5136 121.918 83.1155C119.148 83.9522 120.191 88.8001 117.727 90.3146C116.449 91.0974 114.785 90.608 113.454 89.9255C111.8 89.0738 110.156 87.7355 109.941 85.8905C109.654 83.4286 111.964 81.503 114.112 80.2674C116.261 79.0318 118.755 77.6541 119.242 75.2265C119.406 74.4188 119.315 73.5774 119.489 72.7721C119.988 70.4302 122.454 69.1041 124.735 68.3747C127.015 67.6454 129.55 67.0852 131.072 65.2355C131.439 64.7902 131.728 64.2886 132.012 63.7843C141.24 72.5115 146.998 84.8663 146.998 98.5669Z" fill="#5EBDE4"/>
<path d="M168.137 146.274C180.915 146.274 191.274 135.915 191.274 123.137C191.274 110.359 180.915 100 168.137 100C155.359 100 145 110.359 145 123.137C145 135.915 155.359 146.274 168.137 146.274Z" fill="#5EBDE4"/>
<path d="M176.144 120.339C176.144 115.923 172.552 112.331 168.137 112.331C163.722 112.331 160.13 115.923 160.13 120.339C160.13 122.516 161.006 124.491 162.422 125.936C161.006 127.381 160.13 129.356 160.13 131.533C160.13 132.864 161.209 133.943 162.54 133.943C163.87 133.943 164.95 132.864 164.95 131.533C164.95 129.776 166.38 128.346 168.137 128.346C169.894 128.346 171.325 129.775 171.325 131.533C171.325 132.864 172.404 133.943 173.734 133.943C175.065 133.943 176.144 132.864 176.144 131.533C176.144 129.356 175.268 127.381 173.853 125.936C175.268 124.491 176.144 122.516 176.144 120.339ZM168.137 117.151C169.894 117.151 171.325 118.581 171.325 120.339C171.325 122.096 169.894 123.526 168.137 123.526C166.38 123.526 164.95 122.096 164.95 120.339C164.95 118.581 166.379 117.151 168.137 117.151Z" fill="white"/>
<path d="M64.454 198.972C77.2323 198.972 87.5911 188.613 87.5911 175.835C87.5911 163.056 77.2323 152.698 64.454 152.698C51.6758 152.698 41.317 163.056 41.317 175.835C41.317 188.613 51.6758 198.972 64.454 198.972Z" fill="#FFEEF3"/>
<path d="M72.4612 173.036C72.4612 168.621 68.8692 165.029 64.454 165.029C60.0389 165.029 56.4468 168.621 56.4468 173.036C56.4468 175.214 57.3229 177.188 58.7386 178.634C57.3234 180.078 56.4468 182.054 56.4468 184.231C56.4468 185.562 57.5259 186.641 58.8567 186.641C60.1875 186.641 61.2665 185.562 61.2665 184.231C61.2665 182.474 62.6962 181.043 64.454 181.043C66.2114 181.043 67.6415 182.474 67.6415 184.231C67.6415 185.562 68.7206 186.641 70.0514 186.641C71.3822 186.641 72.4612 185.562 72.4612 184.231C72.4612 182.054 71.5851 180.079 70.1695 178.634C71.5847 177.188 72.4612 175.214 72.4612 173.036ZM64.454 169.849C66.2114 169.849 67.6415 171.278 67.6415 173.036C67.6415 174.794 66.2114 176.224 64.454 176.224C62.6967 176.224 61.2665 174.794 61.2665 173.036C61.2665 171.278 62.6962 169.849 64.454 169.849Z" fill="white"/>
<path d="M64.454 65.5341C77.2323 65.5341 87.5911 55.1753 87.5911 42.3971C87.5911 29.6188 77.2323 19.26 64.454 19.26C51.6758 19.26 41.317 29.6188 41.317 42.3971C41.317 55.1753 51.6758 65.5341 64.454 65.5341Z" fill="#722C5B"/>
<path d="M72.4612 39.5986C72.4612 35.1835 68.8692 31.5914 64.454 31.5914C60.0389 31.5914 56.4468 35.1835 56.4468 39.5986C56.4468 41.7764 57.3229 43.7508 58.7386 45.196C57.3234 46.6406 56.4468 48.6155 56.4468 50.7933C56.4468 52.1241 57.5259 53.2031 58.8567 53.2031C60.1875 53.2031 61.2665 52.1241 61.2665 50.7933C61.2665 49.036 62.6962 47.6058 64.454 47.6058C66.2114 47.6058 67.6415 49.0355 67.6415 50.7933C67.6415 52.1241 68.7206 53.2031 70.0514 53.2031C71.3822 53.2031 72.4612 52.1241 72.4612 50.7933C72.4612 48.616 71.5851 46.6411 70.1695 45.196C71.5847 43.7513 72.4612 41.7764 72.4612 39.5986ZM64.454 36.4111C66.2114 36.4111 67.6415 37.8408 67.6415 39.5986C67.6415 41.356 66.2114 42.7861 64.454 42.7861C62.6967 42.7861 61.2665 41.356 61.2665 39.5986C61.2665 37.8413 62.6962 36.4111 64.454 36.4111Z" fill="white"/>
<path d="M152.503 201.705C151.208 201.705 150.159 200.655 150.159 199.361C150.159 197.81 148.897 196.548 147.346 196.548C146.052 196.548 145.003 195.499 145.003 194.205C145.003 192.91 146.052 191.861 147.346 191.861C148.897 191.861 150.159 190.599 150.159 189.048C150.159 187.754 151.208 186.705 152.503 186.705C153.797 186.705 154.846 187.754 154.846 189.048C154.846 190.599 156.108 191.861 157.659 191.861C158.954 191.861 160.003 192.91 160.003 194.205C160.003 195.499 158.954 196.548 157.659 196.548C156.108 196.548 154.846 197.81 154.846 199.361C154.846 200.655 153.797 201.705 152.503 201.705Z" fill="#5EBDE4"/>
<path d="M10.5347 96.6914C9.24045 96.6914 8.19092 95.6424 8.19092 94.3477C8.19092 92.7966 6.92951 91.5352 5.37842 91.5352C4.0842 91.5352 3.03467 90.4861 3.03467 89.1914C3.03467 87.8967 4.0842 86.8477 5.37842 86.8477C6.92951 86.8477 8.19092 85.5863 8.19092 84.0352C8.19092 82.7405 9.24045 81.6914 10.5347 81.6914C11.8289 81.6914 12.8784 82.7405 12.8784 84.0352C12.8784 85.5863 14.1398 86.8477 15.6909 86.8477C16.9851 86.8477 18.0347 87.8967 18.0347 89.1914C18.0347 90.4861 16.9851 91.5352 15.6909 91.5352C14.1398 91.5352 12.8784 92.7966 12.8784 94.3477C12.8784 95.6424 11.8289 96.6914 10.5347 96.6914Z" fill="#5EBDE4"/>
<path d="M151.476 40.2071C150.877 40.2071 150.276 39.9783 149.819 39.5203L144.663 34.3641C143.747 33.4491 143.747 31.965 144.663 31.05L149.819 25.8938C150.734 24.9783 152.219 24.9783 153.133 25.8938L158.289 31.05C159.205 31.965 159.205 33.4491 158.289 34.3641L153.133 39.5203C152.676 39.9783 152.076 40.2071 151.476 40.2071ZM149.635 32.7071L151.477 34.5488L153.318 32.7071L151.477 30.8653L149.635 32.7071Z" fill="#F3ADC8"/>
<defs>
<linearGradient id="paint0_linear" x1="0.222351" y1="120" x2="197.779" y2="120" gradientUnits="userSpaceOnUse">
<stop offset="0.0485" stop-color="#F3FAFF"/>
<stop offset="0.9993" stop-color="#FFEEF3"/>
</linearGradient>
</defs>
</svg>
