<svg width="576" height="424" viewBox="0 0 576 424" fill="none" xmlns="http://www.w3.org/2000/svg">
<path fill-rule="evenodd" clip-rule="evenodd" d="M301.12 1.03537C348.275 -5.54067 391.974 20.4959 434.071 42.7382C483.245 68.7201 542.158 89.218 564.453 140.171C587.319 192.428 573.01 254.481 549.454 306.43C527.534 354.773 488.16 395.131 439.369 416.03C395.934 434.635 348.314 415.151 301.12 412.802C257.098 410.612 213.809 418.175 172.519 402.751C119.458 382.931 61.473 361.904 33.3042 312.761C2.801 259.546 -15.8909 184.73 18.3945 133.87C53.4372 81.8864 135.892 103.067 192.632 76.4087C233.486 57.2141 256.415 7.26985 301.12 1.03537Z" fill="#C4C4C4"/>
</svg>
