<svg width="301" height="295" viewBox="0 0 301 295" fill="none" xmlns="http://www.w3.org/2000/svg">
<path fill-rule="evenodd" clip-rule="evenodd" d="M145.046 0.754109C178.33 0.399223 214.579 18.2361 241.539 37.8109C268.536 57.4126 289.204 79.2787 297.706 111.595C306.001 143.129 296.287 174.432 282.038 203.748C269.287 229.983 246.279 251.442 221.948 267.46C198.653 282.797 172.905 294.008 145.046 294.693C116.681 295.392 87.1364 289.541 65.3503 271.315C44.2442 253.659 53.9743 219.748 43.5438 194.248C32.0138 166.061 -3.52928 144.56 1.19079 114.463C6.16969 82.7163 30.3736 57.7066 55.5439 37.8109C81.5279 17.2721 111.961 1.10687 145.046 0.754109Z" fill="#C4C4C4"/>
</svg>
