<svg width="38" height="38" viewBox="0 0 38 38" fill="none" xmlns="http://www.w3.org/2000/svg">
<g clip-path="url(#clip0)">
<path d="M31.2032 37.3494C23.0759 38.2169 14.9241 38.2169 6.79681 37.3494C3.55612 37.0036 0.996445 34.4439 0.650574 31.2029C-0.216858 23.0757 -0.216858 14.9241 0.650574 6.79681C0.996445 3.55612 3.55612 0.996445 6.79681 0.650574C14.9241 -0.216858 23.0757 -0.216858 31.2029 0.650574C34.4439 0.996445 37.0036 3.55612 37.3494 6.79681C38.2169 14.9241 38.2169 23.0757 37.3494 31.2029C37.0036 34.4439 34.4442 37.0036 31.2032 37.3494Z" fill="url(#paint0_linear)"/>
<path d="M35.2826 8.17142C34.9759 5.29574 32.7047 3.02424 29.8287 2.71722C22.6167 1.94778 15.3833 1.94778 8.17131 2.71722C5.29562 3.02424 3.02412 5.29574 2.7171 8.17142C1.94766 15.3834 1.94766 22.6168 2.7171 29.8285C3.02412 32.7045 5.29562 34.976 8.17131 35.2827C15.3833 36.0524 22.6167 36.0524 29.8284 35.2827C32.7044 34.976 34.9759 32.7045 35.2826 29.8285C36.0523 22.6168 36.0523 15.3834 35.2826 8.17142Z" fill="url(#paint1_linear)"/>
<path d="M0.569397 30.4153C0.59549 30.6779 0.622452 30.9406 0.650574 31.2033C0.996445 34.444 3.55612 37.0036 6.7971 37.3495C14.9243 38.2169 23.0759 38.2169 31.2032 37.3495C34.4442 37.0036 37.0036 34.444 37.3494 31.2033C37.3775 30.9406 37.4045 30.6779 37.4309 30.4153H0.569397Z" fill="url(#paint2_linear)"/>
<path d="M19 7.22266C12.543 7.22266 7.30851 12.0747 7.30851 18.0598C7.30851 21.4692 9.00743 24.5101 11.6628 26.4966L11.71 30.3177C11.7124 30.5242 11.9356 30.6523 12.1153 30.5502L15.7665 28.4768C16.7934 28.7502 17.8783 28.8969 19 28.8969C25.457 28.8969 30.6915 24.0448 30.6915 18.0598C30.6915 12.0747 25.457 7.22266 19 7.22266ZM19.8877 21.5527L17.3886 18.9515C17.2422 18.799 17.012 18.7628 16.8259 18.8631L12.4406 21.2245C12.2736 21.3144 12.1098 21.1007 12.2397 20.9627L17.4217 15.4696C17.5704 15.3122 17.8209 15.3122 17.9693 15.4699L20.4676 18.1209C20.6143 18.2769 20.8473 18.314 21.0355 18.2117L25.3448 15.8654C25.5118 15.7746 25.6765 15.9886 25.5463 16.1269L20.4331 21.5501C20.2855 21.7066 20.037 21.7078 19.8877 21.5527Z" fill="white"/>
</g>
<defs>
<linearGradient id="paint0_linear" x1="12.6167" y1="5.34273" x2="22.228" y2="25.9064" gradientUnits="userSpaceOnUse">
<stop stop-color="#0082FF"/>
<stop offset="1" stop-color="#0078DB"/>
</linearGradient>
<linearGradient id="paint1_linear" x1="27.0366" y1="23.3112" x2="-28.1724" y2="-6.30494" gradientUnits="userSpaceOnUse">
<stop stop-color="#0078DB" stop-opacity="0"/>
<stop offset="1" stop-color="#006CB5"/>
</linearGradient>
<linearGradient id="paint2_linear" x1="19" y1="32.9334" x2="19" y2="36.8108" gradientUnits="userSpaceOnUse">
<stop stop-color="#0078DB" stop-opacity="0"/>
<stop offset="1" stop-color="#006CB5"/>
</linearGradient>
<clipPath id="clip0">
<rect width="38" height="38" fill="white"/>
</clipPath>
</defs>
</svg>
