<svg width="38" height="38" viewBox="0 0 38 38" fill="none" xmlns="http://www.w3.org/2000/svg">
<path d="M37.3494 6.79681C37.0036 3.55612 34.4442 0.996155 31.2032 0.650574C23.0757 -0.216858 14.9243 -0.216858 6.7971 0.650574C3.55612 0.996445 0.996445 3.55612 0.650574 6.79681C-0.216858 14.9241 -0.216858 23.0757 0.650574 31.2029C0.996445 34.4439 3.55612 37.0036 6.79681 37.3494C14.9241 38.2169 23.0757 38.2169 31.2032 37.3494C34.4442 37.0036 37.0036 34.4439 37.3494 31.2029C38.2169 23.0757 38.2169 14.9243 37.3494 6.79681Z" fill="url(#paint0_radial)"/>
<path d="M35.2826 8.17142C34.9759 5.29574 32.7047 3.02424 29.8287 2.71722C22.6167 1.94778 15.3833 1.94778 8.17131 2.71722C5.29562 3.02424 3.02412 5.29574 2.7171 8.17142C1.94766 15.3834 1.94766 22.6168 2.7171 29.8285C3.02412 32.7045 5.29562 34.976 8.17131 35.2827C15.3833 36.0525 22.6167 36.0525 29.8284 35.2827C32.7044 34.976 34.9759 32.7045 35.2826 29.8285C36.0523 22.6168 36.0523 15.3834 35.2826 8.17142Z" fill="url(#paint1_linear)"/>
<path d="M0.569397 30.4153C0.59549 30.6779 0.622452 30.9406 0.650574 31.2033C0.996445 34.444 3.55612 37.0036 6.7971 37.3495C14.9243 38.2169 23.0759 38.2169 31.2032 37.3495C34.4442 37.0036 37.0036 34.444 37.3494 31.2033C37.3775 30.9406 37.4045 30.6779 37.4309 30.4153H0.569397Z" fill="url(#paint2_linear)"/>
<path d="M37.3494 31.2028C37.8156 26.8358 38.0307 22.4618 37.9959 18.0884L29.31 9.40249C28.2249 8.16367 26.6399 7.39047 24.7775 7.32349C20.9474 7.18549 17.1051 7.19245 13.2744 7.32407C10.0929 7.43366 7.86806 9.57209 7.2975 12.7151C7.1969 13.27 7.1366 13.8321 7.05745 14.3911V23.6052C7.10123 23.9038 7.16559 24.201 7.18559 24.5014C7.31316 26.4131 8.09883 28.0505 9.35678 29.1583L18.1958 37.997C22.5335 38.0274 26.8715 37.8117 31.2032 37.3493C34.4442 37.0035 37.0036 34.4438 37.3494 31.2028Z" fill="url(#paint3_linear)"/>
<path d="M7.05745 14.3911C7.1366 13.8321 7.1969 13.27 7.2975 12.7151C7.86777 9.57209 10.0929 7.43366 13.2744 7.32407C17.1051 7.19245 20.9474 7.18549 24.7775 7.32349C28.2402 7.44816 30.748 10.0122 30.8562 13.4761C30.9713 17.1543 30.9713 20.8414 30.8562 24.5196C30.748 27.9836 28.2411 30.5473 24.7778 30.6722C20.9477 30.8105 17.1045 30.814 13.2747 30.6702C9.81137 30.54 7.41724 27.9702 7.18559 24.5011C7.16559 24.201 7.10123 23.9036 7.05745 23.6049C7.05745 20.5336 7.05745 17.4622 7.05745 14.3911ZM19.0032 28.6193C20.756 28.6193 22.5106 28.6718 24.2611 28.6072C27.0058 28.5054 28.694 26.8674 28.758 24.1253C28.8375 20.7087 28.8375 17.2874 28.758 13.8704C28.694 11.1289 27.0046 9.45264 24.2611 9.39437C20.7789 9.32073 17.293 9.32131 13.8108 9.39437C11.0882 9.45148 9.39505 11.0939 9.32112 13.8052C9.22719 17.265 9.22719 20.731 9.32112 24.1909C9.39505 26.9019 11.0882 28.5063 13.8111 28.6072C15.5396 28.6715 17.2724 28.6193 19.0032 28.6193Z" fill="url(#paint4_linear)"/>
<path d="M7.05745 14.3911C7.1366 13.8321 7.1969 13.27 7.2975 12.7151C7.86777 9.57209 10.0929 7.43366 13.2744 7.32407C17.1051 7.19245 20.9474 7.18549 24.7775 7.32349C28.2402 7.44816 30.748 10.0122 30.8562 13.4761C30.9713 17.1543 30.9713 20.8414 30.8562 24.5196C30.748 27.9836 28.2411 30.5473 24.7778 30.6722C20.9477 30.8105 17.1045 30.814 13.2747 30.6702C9.81137 30.54 7.41724 27.9702 7.18559 24.5011C7.16559 24.201 7.10123 23.9036 7.05745 23.6049C7.05745 20.5336 7.05745 17.4622 7.05745 14.3911ZM19.0032 28.6193C20.756 28.6193 22.5106 28.6718 24.2611 28.6072C27.0058 28.5054 28.694 26.8674 28.758 24.1253C28.8375 20.7087 28.8375 17.2874 28.758 13.8704C28.694 11.1289 27.0046 9.45264 24.2611 9.39437C20.7789 9.32073 17.293 9.32131 13.8108 9.39437C11.0882 9.45148 9.39505 11.0939 9.32112 13.8052C9.22719 17.265 9.22719 20.731 9.32112 24.1909C9.39505 26.9019 11.0882 28.5063 13.8111 28.6072C15.5396 28.6715 17.2724 28.6193 19.0032 28.6193Z" fill="white"/>
<path d="M19 12.9136C15.6387 12.9136 12.9135 15.6385 12.9135 18.9998C12.9135 22.3614 15.6387 25.0863 19 25.0863C22.3616 25.0863 25.0865 22.3614 25.0865 18.9998C25.0865 15.6385 22.3616 12.9136 19 12.9136ZM19 22.9908C16.7958 22.9908 15.009 21.204 15.009 18.9998C15.009 16.7956 16.7958 15.0088 19 15.0088C21.2042 15.0088 22.991 16.7956 22.991 18.9998C22.991 21.204 21.2042 22.9908 19 22.9908Z" fill="white"/>
<path d="M26.8898 12.6359C26.8898 13.4355 26.2415 14.0837 25.442 14.0837C24.6424 14.0837 23.9938 13.4355 23.9938 12.6359C23.9938 11.836 24.6424 11.1877 25.442 11.1877C26.2415 11.1877 26.8898 11.836 26.8898 12.6359Z" fill="white"/>
<defs>
<radialGradient id="paint0_radial" cx="0" cy="0" r="1" gradientUnits="userSpaceOnUse" gradientTransform="translate(7.78979 33.209) scale(41.9073)">
<stop stop-color="#FAE100"/>
<stop offset="0.0544" stop-color="#FADC04"/>
<stop offset="0.1167" stop-color="#FBCE0E"/>
<stop offset="0.1829" stop-color="#FCB720"/>
<stop offset="0.2514" stop-color="#FE9838"/>
<stop offset="0.3054" stop-color="#FF7950"/>
<stop offset="0.4922" stop-color="#FF1C74"/>
<stop offset="1" stop-color="#6C1CD1"/>
</radialGradient>
<linearGradient id="paint1_linear" x1="14.5745" y1="16.5108" x2="-49.802" y2="-19.701" gradientUnits="userSpaceOnUse">
<stop stop-color="#A1B5D8" stop-opacity="0"/>
<stop offset="0.3094" stop-color="#90A2BD" stop-opacity="0.309804"/>
<stop offset="0.7554" stop-color="#7C8B9C" stop-opacity="0.756863"/>
<stop offset="1" stop-color="#748290"/>
</linearGradient>
<linearGradient id="paint2_linear" x1="19" y1="33.5444" x2="19" y2="39.4677" gradientUnits="userSpaceOnUse">
<stop stop-color="#FAE100" stop-opacity="0"/>
<stop offset="0.3068" stop-color="#FCA800" stop-opacity="0.305882"/>
<stop offset="0.6275" stop-color="#FE7300" stop-opacity="0.627451"/>
<stop offset="0.8685" stop-color="#FF5200" stop-opacity="0.866667"/>
<stop offset="1" stop-color="#FF4500"/>
</linearGradient>
<linearGradient id="paint3_linear" x1="16.8382" y1="16.7843" x2="7.4338" y2="7.37993" gradientUnits="userSpaceOnUse">
<stop stop-color="#833AB4" stop-opacity="0"/>
<stop offset="1" stop-color="#833AB4"/>
</linearGradient>
<linearGradient id="paint4_linear" x1="26.5449" y1="11.5075" x2="11.1731" y2="26.8793" gradientUnits="userSpaceOnUse">
<stop stop-color="#833AB4"/>
<stop offset="0.0922" stop-color="#9C3495"/>
<stop offset="0.2927" stop-color="#DC2546"/>
<stop offset="0.392" stop-color="#FD1D1D"/>
<stop offset="0.5589" stop-color="#FC6831"/>
<stop offset="0.6887" stop-color="#FC9B40"/>
<stop offset="0.7521" stop-color="#FCAF45"/>
<stop offset="0.7806" stop-color="#FDB750"/>
<stop offset="0.8656" stop-color="#FECB6A"/>
<stop offset="0.9415" stop-color="#FFD87A"/>
<stop offset="1" stop-color="#FFDC80"/>
</linearGradient>
</defs>
</svg>
