<svg width="35" height="35" viewBox="0 0 35 35" fill="none" xmlns="http://www.w3.org/2000/svg">
<g clip-path="url(#clip0)">
<path d="M33.7677 20.2606C34.8119 11.4712 33.266 5.92227 30.4777 3.41248L30.4792 3.41102C25.9788 -0.875025 10.78 -1.5094 5.39583 3.60352C2.97792 6.10456 2.12625 9.77518 2.03292 14.3194C1.93958 18.865 1.82875 27.3802 9.76354 29.6902H9.77083L9.76354 33.2179C9.76354 33.2179 9.70958 34.6471 10.6225 34.9344C11.6667 35.2727 12.1392 34.6091 15.3869 30.73C20.8177 31.201 24.9885 30.1219 25.4625 29.9644C26.5592 29.5969 32.7644 28.7758 33.7677 20.2606ZM15.9221 28.2479C15.9221 28.2479 12.4848 32.5339 11.4158 33.6466C11.0658 34.0083 10.6823 33.9748 10.6881 33.2573C10.6881 32.7862 10.7144 27.4006 10.7144 27.4006C3.98708 25.4727 4.38375 18.2219 4.45667 14.4287C4.52958 10.6341 5.22375 7.52643 7.27125 5.43373C11.9948 1.00477 25.3196 1.99498 28.7146 5.18581C32.865 8.86518 31.3877 19.2602 31.3965 19.6146C30.5433 26.7225 25.515 27.1731 24.5904 27.4808C24.1952 27.6121 20.5275 28.5556 15.9221 28.2479V28.2479Z" fill="#F3ADC8"/>
<path d="M17.8238 6.26636C17.2623 6.26636 17.2623 7.14136 17.8238 7.14865C22.1798 7.18219 25.7673 10.2184 25.8067 15.7878C25.8067 16.3755 26.6671 16.3682 26.6598 15.7805H26.6583C26.6117 9.77948 22.6946 6.2999 17.8238 6.26636V6.26636Z" fill="#F3ADC8"/>
<path d="M23.5535 14.8648C23.5404 15.4453 24.3994 15.473 24.4067 14.8853C24.4781 11.5763 22.4379 8.85068 18.604 8.56339C18.0425 8.52255 17.9842 9.40484 18.5442 9.44568C21.8692 9.69797 23.6206 11.9671 23.5535 14.8648V14.8648Z" fill="#F3ADC8"/>
<path d="M22.6348 18.6286C21.9144 18.2115 21.1808 18.4711 20.8775 18.8809L20.2431 19.7019C19.9208 20.119 19.3185 20.0636 19.3185 20.0636C14.9231 18.9013 13.7477 14.3017 13.7477 14.3017C13.7477 14.3017 13.6938 13.679 14.0963 13.345L14.8896 12.6888C15.2863 12.3738 15.5371 11.6155 15.1331 10.8702C14.054 8.92045 13.3292 8.24816 12.9602 7.73191C12.5723 7.24628 11.989 7.13691 11.3823 7.46503H11.3692C10.1077 8.20295 8.72668 9.58399 9.16855 11.0059C9.92251 12.505 11.3079 17.284 15.7238 20.8948C17.799 22.6025 21.0831 24.3525 22.4773 24.7565L22.4904 24.7769C23.8642 25.2348 25.2 23.7998 25.9131 22.5005V22.4902C26.2296 21.8617 26.1246 21.2667 25.6623 20.8773C24.8427 20.0782 23.606 19.1959 22.6348 18.6286Z" fill="#F3ADC8"/>
<path d="M19.2048 11.8183C20.6063 11.9 21.2858 12.632 21.3588 14.1356C21.385 14.7233 22.2381 14.6825 22.2119 14.0947C22.1186 12.1318 21.0948 11.0381 19.2515 10.936C18.69 10.9024 18.6375 11.7847 19.2048 11.8183V11.8183Z" fill="#F3ADC8"/>
</g>
<defs>
<clipPath id="clip0">
<rect width="35" height="35" fill="white"/>
</clipPath>
</defs>
</svg>
