<svg width="36" height="38" viewBox="0 0 36 38" fill="none" xmlns="http://www.w3.org/2000/svg">
<path d="M34.6621 21.9974C35.7958 12.4547 34.1174 6.43008 31.0901 3.70516L31.0917 3.70358C26.2055 -0.949839 9.704 -1.63859 3.85834 3.91258C1.23317 6.628 0.308504 10.6132 0.20717 15.5469C0.105837 20.4822 -0.0144964 29.7272 8.60042 32.2352H8.60834L8.60042 36.0653C8.60042 36.0653 8.54184 37.617 9.533 37.9289C10.6667 38.2962 11.1797 37.5758 14.7058 33.3642C20.6021 33.8756 25.1304 32.7039 25.645 32.5329C26.8357 32.1339 33.5728 31.2425 34.6621 21.9974ZM15.2868 30.6693C15.2868 30.6693 11.5549 35.3228 10.3943 36.5308C10.0143 36.9235 9.59792 36.8871 9.60425 36.1081C9.60425 35.5967 9.63275 29.7494 9.63275 29.7494C2.32884 27.6562 2.7595 19.7839 2.83867 15.6657C2.91784 11.5458 3.6715 8.17175 5.8945 5.89966C11.0229 1.09108 25.4898 2.16616 29.1758 5.6305C33.682 9.62525 32.0781 20.9112 32.0876 21.296C31.1613 29.0132 25.702 29.5024 24.6982 29.8365C24.2691 29.979 20.287 31.0034 15.2868 30.6693Z" fill="#8E24AA"/>
<path d="M17.3515 6.80371C16.7419 6.80371 16.7419 7.75371 17.3515 7.76163C22.0809 7.79804 25.9759 11.0945 26.0187 17.1413C26.0187 17.7794 26.9528 17.7715 26.9449 17.1334H26.9433C26.8927 10.618 22.6398 6.84013 17.3515 6.80371Z" fill="#8E24AA"/>
<path d="M23.5724 16.139C23.5582 16.7691 24.4907 16.7992 24.4987 16.1611C24.5762 12.5686 22.3612 9.60931 18.1986 9.29739C17.589 9.25306 17.5257 10.211 18.1337 10.2553C21.7437 10.5292 23.6452 12.9929 23.5724 16.139Z" fill="#8E24AA"/>
<path d="M22.5749 20.2256C21.7928 19.7727 20.9963 20.0546 20.667 20.4995L19.9783 21.3909C19.6283 21.8437 18.9744 21.7836 18.9744 21.7836C14.2023 20.5217 12.9261 15.5278 12.9261 15.5278C12.9261 15.5278 12.8675 14.8517 13.3045 14.4892L14.1658 13.7767C14.5965 13.4347 14.8688 12.6113 14.4303 11.8022C13.2586 9.68533 12.4717 8.95542 12.0711 8.39492C11.6499 7.86767 11.0166 7.74892 10.3579 8.10517H10.3437C8.9741 8.90633 7.47468 10.4057 7.95443 11.9495C8.77301 13.5772 10.2772 18.7657 15.0715 22.6861C17.3246 24.5402 20.8903 26.4402 22.4039 26.8787L22.4182 26.9009C23.9097 27.3981 25.36 25.8401 26.1343 24.4293V24.4182C26.4778 23.7358 26.3638 23.0898 25.8619 22.6671C24.9721 21.7994 23.6294 20.8415 22.5749 20.2256Z" fill="#8E24AA"/>
<path d="M18.8509 12.8315C20.3725 12.9202 21.1103 13.715 21.1895 15.3474C21.218 15.9855 22.1442 15.9412 22.1158 15.3031C22.0144 13.1719 20.9029 11.9844 18.9016 11.8736C18.292 11.8372 18.235 12.7951 18.8509 12.8315Z" fill="#8E24AA"/>
</svg>
