<svg width="22" height="20" viewBox="0 0 22 20" fill="none" xmlns="http://www.w3.org/2000/svg">
<path fill-rule="evenodd" clip-rule="evenodd" d="M4.56785 3.72471C4.81803 3.48064 5.22365 3.48064 5.47383 3.72471L11 9.11611L16.5262 3.72471C16.7764 3.48064 17.182 3.48064 17.4322 3.72471C17.6823 3.96879 17.6823 4.36452 17.4322 4.6086L11.906 9.99999L17.4322 15.3914C17.6823 15.6355 17.6823 16.0312 17.4322 16.2753C17.182 16.5193 16.7764 16.5193 16.5262 16.2753L11 10.8839L5.47383 16.2753C5.22365 16.5193 4.81803 16.5193 4.56785 16.2753C4.31767 16.0312 4.31767 15.6355 4.56785 15.3914L10.094 9.99999L4.56785 4.6086C4.31767 4.36452 4.31767 3.96879 4.56785 3.72471Z" fill="#F3ADC8"/>
</svg>
