<?xml version="1.0" encoding="utf-8"?><svg viewBox="0 0 512 512" xmlns="http://www.w3.org/2000/svg" xmlns:xlink="http://www.w3.org/1999/xlink"><style>:root>svg{display:none}:root>svg:target{display:block}</style><svg fill="none" viewBox="0 0 24 24" id="arrow-left" xmlns="http://www.w3.org/2000/svg"><path fill-rule="evenodd" clip-rule="evenodd" d="M17.749 2.225c.335.3.335.788 0 1.088l-9.68 8.69 9.674 8.684c.335.3.335.787 0 1.088-.335.3-.877.3-1.212 0l-10.28-9.23a.715.715 0 010-1.087l10.286-9.233c.334-.3.877-.3 1.212 0z" fill="#F3ADC8"/></svg><svg fill="none" viewBox="0 0 24 24" id="arrow-right" xmlns="http://www.w3.org/2000/svg"><path fill-rule="evenodd" clip-rule="evenodd" d="M6.251 21.775a.715.715 0 010-1.088l9.68-8.69-9.674-8.684a.715.715 0 010-1.088c.335-.3.877-.3 1.212 0l10.28 9.23c.335.3.335.786 0 1.087L7.463 21.775c-.334.3-.877.3-1.212 0z" fill="#F3ADC8"/></svg><svg viewBox="0 0 512.001 512.001" id="chat" xmlns="http://www.w3.org/2000/svg"><linearGradient id="ca" gradientUnits="userSpaceOnUse" x1="0" y1="258" x2="512.001" y2="258" gradientTransform="matrix(1 0 0 -1 0 514)"><stop offset="0" stop-color="#00f2fe"/><stop offset=".021" stop-color="#03effe"/><stop offset=".293" stop-color="#24d2fe"/><stop offset=".554" stop-color="#3cbdfe"/><stop offset=".796" stop-color="#4ab0fe"/><stop offset="1" stop-color="#4facfe"/></linearGradient><path d="M212.001 183c11.046 0 20 8.954 20 20s-8.954 20-20 20-20-8.954-20-20 8.955-20 20-20zm60 20c0 11.046 8.954 20 20 20s20-8.954 20-20-8.954-20-20-20-20 8.954-20 20zm80 0c0 11.046 8.954 20 20 20s20-8.954 20-20-8.954-20-20-20-20 8.954-20 20zm158.542 207.504a19.998 19.998 0 01-4.621 21.855 20 20 0 01-21.989 3.942l-107.301-47.3a230.144 230.144 0 01-41.547 11.551c-14.543 23.919-35.287 44.173-60.505 58.917-28.154 16.459-60.661 25.254-94.098 25.507-.491.036-.982.075-1.482.075-23.118 0-45.515-3.993-66.703-11.88l-84.229 37.13a19.989 19.989 0 01-21.988-3.942 19.998 19.998 0 01-4.621-21.855l29.212-72.262C10.564 384.865.001 353.053.001 319.525c0-53.673 27.835-103.502 74.792-134.598 4.331-47.819 26.659-92.167 63.991-126.335C180.067 20.809 234.835 0 293.001 0s112.935 20.809 154.217 58.593c41.777 38.235 64.783 89.213 64.783 143.543 0 8.991-.788 19.225-2.219 28.815-1.629 10.925-11.806 18.464-22.732 16.83-10.925-1.63-18.46-11.807-16.83-22.732 1.131-7.586 1.781-15.938 1.781-22.913 0-89.402-80.299-162.136-179-162.136s-179 72.734-179 162.136c0 78.301 71.927 162.136 179 162.136 26.604 0 52.216-5.172 76.124-15.373a20.002 20.002 0 0115.917.095L455 379.833l-23.555-58.266c-4.14-10.241.806-21.898 11.047-26.038 10.24-4.142 21.898.807 26.038 11.046l42.013 103.929zm-228.905-6.501c-55.405-2.604-106.715-24.232-145.506-61.565-31.173-30.002-51.838-68.194-59.162-108.119-23.524 22.962-36.969 53.245-36.969 85.206 0 27.926 9.955 54.365 28.79 76.462a20.001 20.001 0 013.322 20.47l-15.109 37.375 46.837-20.646a19.991 19.991 0 0115.916-.095c18.357 7.832 38.013 11.846 58.435 11.95.271-.011.537-.041.81-.041 39.4 0 76.624-15.392 102.636-40.997z" fill="url(#ca)"/></svg><svg fill="none" viewBox="0 0 22 20" id="close" xmlns="http://www.w3.org/2000/svg"><path fill-rule="evenodd" clip-rule="evenodd" d="M4.568 3.725a.652.652 0 01.906 0L11 9.116l5.526-5.391a.652.652 0 01.906 0c.25.244.25.64 0 .884L11.906 10l5.526 5.391c.25.245.25.64 0 .884a.652.652 0 01-.906 0L11 10.884l-5.526 5.391a.652.652 0 01-.906 0 .614.614 0 010-.884L10.094 10 4.568 4.609a.614.614 0 010-.884z" fill="#F3ADC8"/></svg><svg fill="none" viewBox="0 0 90 90" id="eco" xmlns="http://www.w3.org/2000/svg"><path d="M72.48 30.963c1.069.53 2.249-.472 1.887-1.609C72 21.923 64.577 4.09 47.647 3.188 28.36 2.161 22.552 14.28 24.431 20.845l2.256 4.463c1.028 3.283 4.332 9.092 14.816 8.776 13.509-.407 19.598-8.76 30.976-3.121z" fill="#5EBDE4"/><path d="M49.576 10.915c10.084.004 17.358 5.693 22.363 12.131-3.775-8.311-11.183-19.16-24.292-19.858C28.36 2.161 22.552 14.28 24.431 20.845l1.347 2.666c2.27-6.246 9.407-12.602 23.798-12.596zM81.097 46.58l-4.994-.277c-3.357-.75-10.04-.794-15.008 8.443C54.693 66.648 58.883 76.1 48.31 83.133c-.994.66-.716 2.184.45 2.439 7.619 1.666 26.774 4.153 36.02-10.057 10.534-16.19 2.942-27.28-3.683-28.934z" fill="#5EBDE4"/><path d="M56.277 86.02c10.573-7.486 6.384-17.545 12.785-30.212 3.52-6.962 7.898-8.97 11.346-9.266l-4.305-.239c-3.358-.75-10.04-.794-15.008 8.443C54.693 66.65 58.883 76.1 48.31 83.133c-.994.661-.717 2.184.45 2.439a57.76 57.76 0 007.017 1.084c.097-.244.261-.467.5-.637zM14.174 35.768c-.076-1.19-1.533-1.712-2.337-.83-5.252 5.766-16.984 21.11-9.3 36.223C11.29 88.379 24.69 87.348 29.436 82.439l2.737-4.186c2.329-2.533 5.707-8.298.192-17.22-7.107-11.494-17.386-12.591-18.191-25.265z" fill="#5EBDE4"/><path d="M9.961 71.16c-5.933-11.668-.29-23.474 5.007-30.903-.411-1.327-.687-2.805-.794-4.489-.075-1.19-1.533-1.712-2.337-.83-5.252 5.766-16.984 21.11-9.3 36.223C9.23 84.327 18.64 86.823 24.82 85.073c-5.012-1.307-10.51-5.356-14.86-13.912z" fill="#5EBDE4"/><path d="M18.273 28.125a1.409 1.409 0 00-.527 1.087l.919 1.148a1.399 1.399 0 002.094.102c3.567-3.66 15.488-14.514 28.792-11.431a.673.673 0 00.68-.209c-5.462-2.482-15.89-3.552-31.958 9.303z" fill="#F3FAFF"/><path d="M18.51 28.147c15.835-12.669 26.105-11.599 31.478-9.15.473-.2.626-.925.083-1.253-4.786-2.885-15.502-5.722-33.056 8.32a1.399 1.399 0 00-.216 1.965l1.227 1.534a1.396 1.396 0 01.483-1.416z" fill="#ADE1EE"/><path d="M80.284 37.549a1.399 1.399 0 00-1.594-1.17l-1.53.234a1.394 1.394 0 00-.338 1.346c1.386 4.918 4.826 20.67-4.497 30.65a.677.677 0 00-.101.822l.054.088c4.835-3.343 11.1-11.656 8.006-31.97z" fill="#F3FAFF"/><path d="M72.506 68.609c9.323-9.98 5.883-25.732 4.497-30.65a1.397 1.397 0 01.366-1.378l-1.63.248a1.398 1.398 0 00-1.136 1.763c1.387 4.919 4.827 20.67-4.496 30.65-.548.587.152 1.482.855 1.094.459-.254.944-.553 1.443-.905a.676.676 0 01.101-.822z" fill="#ADE1EE"/><path d="M39.6 80.81c-4.953-1.26-20.313-6.156-24.296-19.22-.121-.4-.484-.546-.806-.484a.67.67 0 01.483.366c.689 5.96 5.12 15.295 23.891 22.63.39.152.807.116 1.154-.061l.534-1.367a1.399 1.399 0 00-.96-1.865z" fill="#F3FAFF"/><path d="M38.886 83.851c-18.568-7.254-22.95-16.489-23.631-22.383-.31-.624-1.31-.44-1.325.316-.105 5.587 2.796 16.287 23.734 24.467a1.399 1.399 0 001.81-.796l.677-1.734c-.365.235-.831.3-1.265.13z" fill="#ADE1EE"/></svg><svg fill="none" viewBox="0 0 35 35" id="fb" xmlns="http://www.w3.org/2000/svg"><path d="M30.625 0H4.375A4.38 4.38 0 000 4.375v26.25A4.38 4.38 0 004.375 35h26.25A4.38 4.38 0 0035 30.625V4.375A4.38 4.38 0 0030.625 0z" fill="#5EBDE4"/><path d="M29.531 17.5h-5.468v-4.375c0-1.207.98-1.094 2.187-1.094h2.188V6.562h-4.375a6.562 6.562 0 00-6.563 6.563V17.5h-4.375v5.469H17.5V35h6.563V22.969h3.28l2.188-5.469z" fill="#FAFAFA"/></svg><svg fill="none" viewBox="0 0 35 35" id="instagram" xmlns="http://www.w3.org/2000/svg"><path d="M24.063 0H10.938C4.897 0 0 4.898 0 10.938v13.124C0 30.102 4.898 35 10.938 35h13.124C30.102 35 35 30.102 35 24.062V10.938C35 4.897 30.102 0 24.062 0zm7.656 24.063c0 4.221-3.435 7.656-7.657 7.656H10.938c-4.221 0-7.656-3.435-7.656-7.657V10.938c0-4.221 3.435-7.656 7.656-7.656h13.126c4.221 0 7.656 3.435 7.656 7.656v13.126z" fill="url(#gpaint0_linear)"/><path d="M17.5 8.75a8.75 8.75 0 100 17.5 8.75 8.75 0 000-17.5zm0 14.219a5.476 5.476 0 01-5.469-5.469 5.475 5.475 0 015.469-5.469 5.475 5.475 0 015.469 5.469 5.476 5.476 0 01-5.469 5.469z" fill="url(#gpaint1_linear)"/><path d="M26.906 9.26a1.166 1.166 0 100-2.332 1.166 1.166 0 000 2.332z" fill="url(#gpaint2_linear)"/><defs><linearGradient id="gpaint0_linear" x1="3.204" y1="31.796" x2="31.796" y2="3.204" gradientUnits="userSpaceOnUse"><stop stop-color="#F3ADC8"/><stop offset=".525" stop-color="#FFEEF3"/><stop offset=".99" stop-color="#F3ADC8"/></linearGradient><linearGradient id="gpaint1_linear" x1="11.313" y1="23.687" x2="23.687" y2="11.313" gradientUnits="userSpaceOnUse"><stop stop-color="#F3ADC8"/><stop offset=".566" stop-color="#FFEEF3"/><stop offset="1" stop-color="#F3ADC8"/></linearGradient><linearGradient id="gpaint2_linear" x1="26.082" y1="8.918" x2="27.731" y2="7.269" gradientUnits="userSpaceOnUse"><stop stop-color="#F3ADC8"/><stop offset=".551" stop-color="#FFEEF3"/><stop offset=".99" stop-color="#F3ADC8"/></linearGradient></defs></svg><svg fill="none" viewBox="0 0 36 34" id="open2" xmlns="http://www.w3.org/2000/svg"><path fill-rule="evenodd" clip-rule="evenodd" d="M18 9.25a.76.76 0 01.769.75v6.25h6.406a.76.76 0 01.769.75.76.76 0 01-.769.75h-6.406V24a.76.76 0 01-.769.75.76.76 0 01-.769-.75v-6.25h-6.406a.76.76 0 01-.769-.75.76.76 0 01.769-.75h6.406V10A.76.76 0 0118 9.25z" fill="#F3ADC8"/><path d="M34.425 17c0 8.813-7.33 16-16.425 16S1.575 25.813 1.575 17C1.575 8.187 8.905 1 18 1s16.425 7.187 16.425 16z" stroke="#F3ADC8" stroke-width="2"/></svg><svg fill="none" viewBox="0 0 64 64" id="play" xmlns="http://www.w3.org/2000/svg"><circle cx="32" cy="32" r="32" fill="#fff"/><path d="M42.5 32.134a1 1 0 010 1.732l-15 8.66a1 1 0 01-1.5-.866V24.34a1 1 0 011.5-.866l15 8.66z" fill="#5EBDE4"/></svg><svg fill="none" viewBox="0 0 16 16" id="plus" xmlns="http://www.w3.org/2000/svg"><path fill-rule="evenodd" clip-rule="evenodd" d="M8 .25a.76.76 0 01.769.75v6.25h6.406a.76.76 0 01.769.75.76.76 0 01-.769.75H8.769V15a.76.76 0 01-.769.75.76.76 0 01-.769-.75V8.75H.825A.76.76 0 01.056 8a.76.76 0 01.769-.75h6.406V1A.76.76 0 018 .25z" fill="#F3ADC8"/></svg><svg fill="none" viewBox="0 0 101 75" id="quote" xmlns="http://www.w3.org/2000/svg"><path d="M22.796 29.85c-1.115 0-2.185.17-3.25.325.345-1.16.7-2.34 1.27-3.4.57-1.54 1.46-2.875 2.345-4.22.74-1.455 2.045-2.44 3.005-3.685 1.005-1.21 2.375-2.015 3.46-3.02 1.065-1.05 2.46-1.575 3.57-2.315 1.16-.665 2.17-1.4 3.25-1.75l2.695-1.11 2.37-.985L39.086 0l-2.985.72c-.955.24-2.12.52-3.445.855-1.355.25-2.8.935-4.41 1.56-1.59.71-3.43 1.19-5.14 2.33-1.72 1.09-3.705 2-5.455 3.46-1.695 1.505-3.74 2.81-5.25 4.725-1.65 1.79-3.28 3.67-4.545 5.81-1.465 2.04-2.46 4.28-3.51 6.495-.95 2.215-1.715 4.48-2.34 6.68-1.185 4.41-1.715 8.6-1.92 12.185-.17 3.59-.07 6.575.14 8.735.075 1.02.215 2.01.315 2.695l.125.84.13-.03a22.5 22.5 0 1022-27.21zm55 0c-1.115 0-2.185.17-3.25.325.345-1.16.7-2.34 1.27-3.4.57-1.54 1.46-2.875 2.345-4.22.74-1.455 2.045-2.44 3.005-3.685 1.005-1.21 2.375-2.015 3.46-3.02 1.065-1.05 2.46-1.575 3.57-2.315 1.16-.665 2.17-1.4 3.25-1.75l2.695-1.11 2.37-.985L94.086 0l-2.985.72c-.955.24-2.12.52-3.445.855-1.355.25-2.8.935-4.41 1.56-1.585.715-3.43 1.19-5.14 2.335-1.72 1.09-3.705 2-5.455 3.46-1.695 1.505-3.74 2.81-5.25 4.72-1.65 1.79-3.28 3.67-4.545 5.81-1.465 2.04-2.46 4.28-3.51 6.495-.95 2.215-1.715 4.48-2.34 6.68-1.185 4.41-1.715 8.6-1.92 12.185-.17 3.59-.07 6.575.14 8.735.075 1.02.215 2.01.315 2.695l.125.84.13-.03a22.5 22.5 0 1022-27.21z" fill="#FFEEF3"/></svg><svg fill="none" viewBox="0 0 226 240" id="step-1" xmlns="http://www.w3.org/2000/svg"><path d="M2.713 84.17c12.307 39.847 50.52 41.721 85.374 43.853 114.782 7.021-29.532 102.275 68.765 111.705 36.157 3.469 73.962-26.698 68.244-65.761-5.206-35.569-56.79-56.753-56.815-89.99-.021-26.225 48.684-45.192 17.002-73.385C157.042-14.538-22.312 3.145 2.713 84.17z" fill="url(#lpaint0_linear)"/><path opacity=".5" d="M31.438 92.766c-.6 0-1.2-.229-1.657-.686l-5.157-5.156a2.343 2.343 0 010-3.315l5.157-5.156a2.344 2.344 0 013.313 0l5.157 5.156c.915.916.915 2.4 0 3.315l-5.157 5.156a2.336 2.336 0 01-1.657.686zm-1.842-7.5l1.841 1.842 1.842-1.842-1.842-1.841-1.841 1.841z" fill="#5EBDE4"/><path opacity=".5" d="M198.781 100.335a2.343 2.343 0 01-1.657-.687l-5.156-5.156a2.342 2.342 0 010-3.315l5.156-5.156a2.344 2.344 0 013.314 0l5.157 5.156c.915.915.915 2.4 0 3.315l-5.157 5.156a2.34 2.34 0 01-1.657.687zm-1.841-7.5l1.841 1.84 1.842-1.84-1.842-1.842-1.841 1.841zM26.281 152.045a2.343 2.343 0 01-2.343-2.344 2.815 2.815 0 00-2.813-2.812 2.344 2.344 0 010-4.688 2.815 2.815 0 002.813-2.812 2.344 2.344 0 014.687 0 2.815 2.815 0 002.813 2.812 2.344 2.344 0 010 4.688 2.815 2.815 0 00-2.813 2.812 2.343 2.343 0 01-2.344 2.344z" fill="#F3ADC8"/><path opacity=".5" d="M206.281 208.025a2.343 2.343 0 01-2.343-2.344 2.815 2.815 0 00-2.813-2.812 2.344 2.344 0 010-4.688 2.815 2.815 0 002.813-2.812 2.344 2.344 0 114.687 0 2.815 2.815 0 002.813 2.812 2.344 2.344 0 010 4.688 2.815 2.815 0 00-2.813 2.812 2.343 2.343 0 01-2.344 2.344z" fill="#5EBDE4"/><path d="M174.186 30.195v177.15c0 7.767-6.295 14.062-14.063 14.062H65.877c-7.768 0-14.063-6.295-14.063-14.062V30.195c0-7.768 6.295-14.063 14.063-14.063h94.246c7.768 0 14.063 6.295 14.063 14.063z" fill="#fff"/><path d="M139.059 26.885l3.355-10.753H83.586l3.355 10.753a4.688 4.688 0 004.474 3.292h43.169a4.689 4.689 0 004.475-3.292z" fill="#5EBDE4"/><path d="M93.874 87.539c7.059-7.059 7.059-18.503 0-25.562-7.058-7.058-18.502-7.058-25.56 0-7.06 7.059-7.06 18.503 0 25.562 7.058 7.058 18.502 7.058 25.56 0z" fill="#F3ADC8"/><path d="M88.899 72.035c0-4.294-3.494-7.787-7.788-7.787-4.294 0-7.787 3.493-7.787 7.787 0 2.118.852 4.038 2.229 5.444a7.759 7.759 0 00-2.229 5.443 2.344 2.344 0 004.688 0c0-1.709 1.39-3.1 3.1-3.1 1.709 0 3.1 1.391 3.1 3.1a2.344 2.344 0 004.687 0 7.757 7.757 0 00-2.23-5.443 7.757 7.757 0 002.23-5.444zm-7.788-3.1c1.71 0 3.1 1.39 3.1 3.1 0 1.709-1.39 3.1-3.1 3.1-1.709 0-3.1-1.391-3.1-3.1 0-1.71 1.39-3.1 3.1-3.1z" fill="#fff"/><path d="M137.966 205.213H88.034a2.344 2.344 0 010-4.688h49.932a2.344 2.344 0 010 4.688z" fill="#61BCE4"/><path d="M160.623 49.275h-35.869a2.344 2.344 0 110-4.688h35.869a2.344 2.344 0 010 4.688z" fill="#5EBDE4"/><path d="M77.297 29.412H68.39a2.344 2.344 0 01-2.344-2.343v-2.335a2.344 2.344 0 012.344-2.344h8.906a2.344 2.344 0 012.344 2.344v2.334a2.344 2.344 0 01-2.344 2.344zM150.461 29.065a2.344 2.344 0 01-2.344-2.344v-1.64a2.344 2.344 0 014.688 0v1.64a2.344 2.344 0 01-2.344 2.344zM157.61 29.065a2.344 2.344 0 01-2.344-2.344v-1.64a2.344 2.344 0 114.687 0v1.64a2.343 2.343 0 01-2.343 2.344z" fill="#F3FAFF"/><path d="M160.623 84.29h-49.932a2.343 2.343 0 010-4.687h49.931a2.344 2.344 0 01.001 4.688z" fill="#61BCE3"/><path d="M110.691 75.263a2.343 2.343 0 01-2.343-2.344v-1.64a2.343 2.343 0 114.687 0v1.64a2.343 2.343 0 01-2.344 2.344zM117.84 75.263a2.344 2.344 0 01-2.344-2.344v-1.64a2.344 2.344 0 014.688 0v1.64a2.343 2.343 0 01-2.344 2.344zM132.137 75.263a2.344 2.344 0 01-2.344-2.344v-1.64a2.344 2.344 0 014.688 0v1.64a2.344 2.344 0 01-2.344 2.344zM139.285 75.263a2.344 2.344 0 01-2.344-2.344v-1.64a2.344 2.344 0 014.688 0v1.64a2.343 2.343 0 01-2.344 2.344zM146.434 75.263a2.344 2.344 0 01-2.344-2.344v-1.64a2.344 2.344 0 114.687 0v1.64a2.343 2.343 0 01-2.343 2.344zM153.582 75.263a2.344 2.344 0 01-2.344-2.344v-1.64a2.344 2.344 0 014.688 0v1.64a2.343 2.343 0 01-2.344 2.344zM160.731 75.263a2.344 2.344 0 01-2.344-2.344v-1.64a2.344 2.344 0 114.687 0v1.64a2.343 2.343 0 01-2.343 2.344z" fill="#B7C5FF"/><path d="M93.87 131.467c7.058-7.059 7.058-18.503 0-25.561-7.059-7.059-18.503-7.059-25.562 0-7.058 7.058-7.058 18.502 0 25.561 7.059 7.059 18.503 7.059 25.562 0z" fill="#F3ADC8"/><path d="M88.899 115.968c0-4.294-3.494-7.788-7.788-7.788-4.294 0-7.787 3.494-7.787 7.788 0 2.118.852 4.038 2.229 5.443a7.761 7.761 0 00-2.229 5.444 2.344 2.344 0 004.688 0c0-1.709 1.39-3.1 3.1-3.1 1.709 0 3.1 1.391 3.1 3.1a2.344 2.344 0 004.687 0 7.76 7.76 0 00-2.23-5.444 7.753 7.753 0 002.23-5.443zm-7.788-3.1c1.71 0 3.1 1.391 3.1 3.1s-1.39 3.1-3.1 3.1a3.104 3.104 0 01-3.1-3.1c0-1.709 1.39-3.1 3.1-3.1z" fill="#fff"/><path d="M160.623 128.224h-49.932a2.344 2.344 0 010-4.688h49.931a2.344 2.344 0 01.001 4.688z" fill="#5EBDE4"/><path d="M110.691 119.196a2.343 2.343 0 01-2.343-2.344v-1.64a2.344 2.344 0 114.687 0v1.64a2.343 2.343 0 01-2.344 2.344zM117.84 119.196a2.344 2.344 0 01-2.344-2.344v-1.64a2.345 2.345 0 014.688 0v1.64a2.343 2.343 0 01-2.344 2.344zM132.137 119.196a2.344 2.344 0 01-2.344-2.344v-1.64a2.345 2.345 0 014.688 0v1.64a2.344 2.344 0 01-2.344 2.344zM139.285 119.196a2.344 2.344 0 01-2.344-2.344v-1.64a2.345 2.345 0 014.688 0v1.64a2.343 2.343 0 01-2.344 2.344zM146.434 119.196a2.343 2.343 0 01-2.344-2.344v-1.64a2.344 2.344 0 014.687 0v1.64a2.343 2.343 0 01-2.343 2.344zM153.582 119.196a2.344 2.344 0 01-2.344-2.344v-1.64a2.345 2.345 0 014.688 0v1.64a2.343 2.343 0 01-2.344 2.344zM160.731 119.196a2.343 2.343 0 01-2.344-2.344v-1.64a2.344 2.344 0 014.687 0v1.64a2.343 2.343 0 01-2.343 2.344z" fill="#B7C5FF"/><path d="M98.682 166.843c2.296-9.715-3.717-19.451-13.431-21.747-9.715-2.297-19.451 3.717-21.748 13.431-2.296 9.714 3.718 19.451 13.432 21.747 9.714 2.296 19.45-3.717 21.747-13.431z" fill="#F3ADC8"/><path d="M88.899 159.901c0-4.294-3.494-7.787-7.788-7.787-4.294 0-7.787 3.493-7.787 7.787a7.76 7.76 0 002.229 5.444 7.757 7.757 0 00-2.229 5.443 2.344 2.344 0 004.688 0c0-1.709 1.39-3.1 3.1-3.1 1.709 0 3.1 1.391 3.1 3.1a2.344 2.344 0 004.687 0 7.755 7.755 0 00-2.23-5.443 7.759 7.759 0 002.23-5.444zm-7.788-3.1c1.71 0 3.1 1.391 3.1 3.1s-1.39 3.1-3.1 3.1c-1.709 0-3.1-1.391-3.1-3.1s1.39-3.1 3.1-3.1z" fill="#fff"/><path d="M160.623 172.156h-49.932a2.343 2.343 0 010-4.687h49.931a2.343 2.343 0 11.001 4.687z" fill="#61BCE4"/><path d="M110.691 163.129a2.343 2.343 0 01-2.343-2.344v-1.64a2.344 2.344 0 114.687 0v1.64a2.343 2.343 0 01-2.344 2.344zM117.84 163.129a2.344 2.344 0 01-2.344-2.344v-1.64a2.345 2.345 0 014.688 0v1.64a2.343 2.343 0 01-2.344 2.344zM132.137 163.129a2.344 2.344 0 01-2.344-2.344v-1.64a2.345 2.345 0 014.688 0v1.64a2.344 2.344 0 01-2.344 2.344zM139.285 163.129a2.344 2.344 0 01-2.344-2.344v-1.64a2.345 2.345 0 014.688 0v1.64a2.343 2.343 0 01-2.344 2.344zM146.434 163.129a2.343 2.343 0 01-2.344-2.344v-1.64a2.344 2.344 0 014.687 0v1.64a2.343 2.343 0 01-2.343 2.344zM153.582 163.129a2.344 2.344 0 01-2.344-2.344v-1.64a2.345 2.345 0 014.688 0v1.64a2.343 2.343 0 01-2.344 2.344zM160.731 163.129a2.343 2.343 0 01-2.344-2.344v-1.64a2.344 2.344 0 014.687 0v1.64a2.343 2.343 0 01-2.343 2.344z" fill="#B7C5FF"/><path d="M174.186 30.195v177.15c0 7.767-6.295 14.062-14.063 14.062H65.877c-7.768 0-14.063-6.295-14.063-14.062V30.195c0-7.768 6.295-14.063 14.063-14.063h94.246c7.768 0 14.063 6.295 14.063 14.063z" fill="url(#lpaint1_linear)"/><defs><linearGradient id="lpaint0_linear" x1=".327" y1="120" x2="225.673" y2="120" gradientUnits="userSpaceOnUse"><stop offset=".049" stop-color="#F3FAFF"/><stop offset=".999" stop-color="#FFEEF3"/></linearGradient><linearGradient id="lpaint1_linear" x1="113" y1="16.133" x2="113" y2="221.408" gradientUnits="userSpaceOnUse"><stop offset=".003" stop-color="#F3ADC8" stop-opacity="0"/><stop offset="1" stop-color="#F3ADC8" stop-opacity=".09"/></linearGradient></defs></svg><svg fill="none" viewBox="0 0 236 240" id="step-2" xmlns="http://www.w3.org/2000/svg"><path d="M214.175 12.821c-29.886-17.806-68.559-16.818-97.909 1.426-16.491 10.25-29.238 25.032-43.694 37.758-12.666 11.152-27.396 19.106-40.478 29.627-47.442 38.158-42.915 141.076 23.889 154.746 28.958 5.926 68.536 7.827 85.556-20.457 16.228-26.967 21.671-54.554 53.379-68.879 11.05-4.992 29.52-4.74 37.005-15.679 9.446-13.806-2.275-28.146-8.527-40.176-8.058-15.503-9.748-30.788-4.078-47.418 4.827-14.162 8.226-20.523-5.143-30.948z" fill="url(#mpaint0_linear)"/><path d="M179.478 34.161a2.343 2.343 0 01-1.657-.687l-5.302-5.302a2.344 2.344 0 010-3.314l5.302-5.302a2.345 2.345 0 013.315 0l5.302 5.302c.915.915.915 2.4 0 3.314l-5.302 5.302c-.44.44-1.036.687-1.658.687zm-1.987-7.646l1.987 1.987 1.987-1.987-1.987-1.987-1.987 1.987zM203.223 172.763l-21.862 21.862c-2.953 2.953-8.002.858-8.002-3.314v-6.352H62.041a4.686 4.686 0 01-4.688-4.687V158.62a4.686 4.686 0 014.688-4.687h111.318v-6.347c0-4.177 5.049-6.272 8.002-3.319l21.862 21.863a4.695 4.695 0 010 6.633z" fill="#5EBDE4"/><path d="M173.355 136.036v21.652a4.687 4.687 0 01-4.688 4.687H57.353v6.347c0 4.176-5.053 6.267-8.006 3.314l-21.863-21.863a4.69 4.69 0 010-6.628l21.863-21.862c2.953-2.953 8.006-.863 8.006 3.314v6.351h111.314c2.592 0 4.688 2.1 4.688 4.688z" fill="#722C5B"/><path d="M160.474 36.347v98.611a7.806 7.806 0 01-7.805 7.805H79.45a7.802 7.802 0 01-7.8-7.805V36.347a7.8 7.8 0 017.8-7.8h73.219c4.308 0 7.805 3.492 7.805 7.8z" fill="#F3ADC8"/><path d="M108.002 51.099a7.13 7.13 0 01-2.091 5.048 7.118 7.118 0 01-5.048 2.09H71.65V43.96h29.213a7.14 7.14 0 017.139 7.14zM108.002 74.133a7.13 7.13 0 01-2.091 5.048 7.118 7.118 0 01-5.048 2.09H71.65V66.995h29.213a7.14 7.14 0 017.139 7.139zM108.002 97.172a7.136 7.136 0 01-7.139 7.139H71.65V90.033h29.213a7.137 7.137 0 017.139 7.139zM108.002 120.206a7.139 7.139 0 01-7.139 7.139H71.65v-14.278h29.213a7.14 7.14 0 017.139 7.139zM130.783 127.344h29.687v-14.278h-29.687a7.14 7.14 0 000 14.278zM130.783 58.238h29.687V43.96h-29.687a7.139 7.139 0 100 14.278zM130.783 81.273h29.687V66.996h-29.687a7.139 7.139 0 100 14.277zM130.783 104.309h29.687V90.031h-29.687a7.139 7.139 0 000 14.278z" fill="#FFEEF3"/><path d="M137.691 104.882h25.75c16.26 0 29.441-13.181 29.441-29.44 0-16.26-13.181-29.442-29.441-29.442C147.181 46 134 59.181 134 75.441v25.75a3.692 3.692 0 003.691 3.691z" fill="#fff"/><path d="M154.246 76.509a4.373 4.373 0 10-8.51-2.012 4.373 4.373 0 008.51 2.012zM166.506 78.541a4.374 4.374 0 10-6.187-6.184 4.374 4.374 0 006.187 6.184zM179.972 78.543a4.372 4.372 0 10-6.184-6.184 4.372 4.372 0 106.184 6.184zM52.862 89.9a2.343 2.343 0 01-2.344-2.343 2.815 2.815 0 00-2.813-2.813 2.343 2.343 0 110-4.687 2.815 2.815 0 002.813-2.813 2.343 2.343 0 114.687 0 2.815 2.815 0 002.813 2.813 2.343 2.343 0 110 4.687 2.815 2.815 0 00-2.813 2.813 2.343 2.343 0 01-2.343 2.344z" fill="#5EBDE4"/><path d="M54.79 213.529c-.599 0-1.199-.229-1.656-.686l-5.302-5.302a2.345 2.345 0 010-3.315l5.302-5.302a2.345 2.345 0 013.314 0l5.302 5.303a2.343 2.343 0 010 3.314l-5.302 5.302a2.337 2.337 0 01-1.657.686zm-1.986-7.645l1.987 1.986 1.987-1.986-1.987-1.987-1.987 1.987z" fill="#F3ADC8"/><defs><linearGradient id="mpaint0_linear" x1=".532" y1="120" x2="235.47" y2="120" gradientUnits="userSpaceOnUse"><stop offset=".049" stop-color="#F3FAFF"/><stop offset=".999" stop-color="#FFEEF3"/></linearGradient></defs></svg><svg fill="none" viewBox="0 0 198 240" id="step-3" xmlns="http://www.w3.org/2000/svg"><path d="M24.537 17.921C-38.898 73.955 42.74 128.27 34.964 189.497c-3.457 27.221 7.525 53.244 43.455 50.271 43.787-3.625 27.893-45.567 37.062-73.49 15.778-48.048 112.842-36.825 72.607-110.835-25.677-47.23-119.89-76.088-163.55-37.522z" fill="url(#npaint0_linear)"/><path d="M165.007 98.567c0 28.575-40.648 92.1-58.077 118.026-3.717 5.53-11.849 5.53-15.566 0-17.429-25.926-58.076-89.451-58.076-118.026 0-36.373 29.486-65.86 65.86-65.86 36.372 0 65.859 29.487 65.859 65.86z" fill="#F3ADC8"/><path d="M99.147 146.418c26.427 0 47.851-21.423 47.851-47.851s-21.424-47.851-47.851-47.851c-26.428 0-47.852 21.423-47.852 47.85 0 26.429 21.424 47.852 47.852 47.852z" fill="#F3FAFF"/><path d="M87.962 138.998c-.279 1.343.164 4.141.169 6.144a47.535 47.535 0 01-14.28-5.951c-1.603-4.228-.796-8.459-.953-13.36-.222-6.915-4.404-7.253-9.509-10.37-4.255-2.601-8.163-5.23-11.315-8.254a48.085 48.085 0 01-.778-8.64c0-9.55 2.797-18.445 7.62-25.913.84 1.079 2.066 1.416 4.13 1.51 1.276-1.29 2.622-1.601 4.041-.933l.602 1.388c-.113 1.027.174 1.923.856 2.689a7.804 7.804 0 004.297-.544c2.09-.423 4.395-1.822 6.531-1.891 8.702-.276 3.157 5.743.524 9.604-3.008 4.414-4.36 10.667-9.932 12.715-4.075 1.497-9.04-.546-9.228 5.872-.149 5.063 5.721 10.436 10.148 11.958 5.417 1.86 12.389-.898 17.655 2.288 3.957 2.393 2.877 10.219 1.901 14.836-.5 2.36-1.978 4.427-2.48 6.852zM94.339 62.178c-1.204 1.786-3.069 3.203-3.646 5.276-.617 2.21.271 4.972-1.346 6.597-2.503-1.693-3.592-4.929-3.485-7.945.066-1.79.336-3.95-1.106-5.012-1.277-.942-3.575-.675-4.023-2.2-.19-.65.1-1.38-.127-2.019-.247-.702-1.013-1.05-1.576-1.536a1.527 1.527 0 01-.14-.137 47.606 47.606 0 0117.286-4.395c.22 3.91.35 8.126-1.837 11.37zM146.998 98.567c0 19.353-11.489 36.022-28.016 43.559.614-1.829 1.806-3.57 2.704-5.318 1.578-3.071 2.32-6.506 2.724-9.935.215-1.83.144-4.074-1.444-5.009-.828-.487-1.843-.46-2.802-.475a23.996 23.996 0 01-5.038-.614c-1.771-.411-3.595-1.086-4.733-2.508-1.698-2.124-1.363-5.168-.942-7.855l1.3-8.278c.354-2.268 1.005-4.925 3.146-5.763 1.466-.572 3.101-.046 4.671.071 4.618.34 8.907-2.938 13.529-2.694.811.044 1.637.193 2.418-.02.56-.154 1.06-.489 1.483-.888 2.43-2.273 2.349-6.134 1.64-9.386-.311-1.427-.74-2.895-1.731-3.967-.993-1.074-2.701-1.613-3.959-.866-2.021 1.199-1.808 4.798-4.04 5.54-1.969.65-4.006-1.647-5.99-1.046-2.77.837-1.727 5.685-4.191 7.2-1.278.782-2.942.293-4.273-.39-1.654-.851-3.298-2.19-3.513-4.034-.287-2.462 2.023-4.388 4.171-5.624 2.149-1.235 4.643-2.613 5.13-5.04.164-.808.073-1.65.247-2.455.499-2.342 2.965-3.668 5.246-4.397 2.28-.73 4.815-1.29 6.337-3.14.367-.445.656-.946.94-1.45 9.228 8.727 14.986 21.081 14.986 34.782zM168.137 146.274c12.778 0 23.137-10.359 23.137-23.137S180.915 100 168.137 100 145 110.359 145 123.137s10.359 23.137 23.137 23.137z" fill="#5EBDE4"/><path d="M176.144 120.339c0-4.416-3.592-8.008-8.007-8.008-4.415 0-8.007 3.592-8.007 8.008 0 2.177.876 4.152 2.292 5.597a7.975 7.975 0 00-2.292 5.597 2.41 2.41 0 004.82 0 3.191 3.191 0 013.187-3.187 3.191 3.191 0 013.188 3.187 2.41 2.41 0 104.819 0 7.978 7.978 0 00-2.291-5.597 7.978 7.978 0 002.291-5.597zm-8.007-3.188a3.192 3.192 0 013.188 3.188 3.192 3.192 0 01-3.188 3.187 3.191 3.191 0 01-3.187-3.187 3.19 3.19 0 013.187-3.188z" fill="#fff"/><path d="M64.454 198.972c12.778 0 23.137-10.359 23.137-23.137 0-12.779-10.359-23.137-23.137-23.137s-23.137 10.358-23.137 23.137c0 12.778 10.359 23.137 23.137 23.137z" fill="#FFEEF3"/><path d="M72.461 173.036c0-4.415-3.592-8.007-8.007-8.007-4.415 0-8.007 3.592-8.007 8.007 0 2.178.876 4.152 2.292 5.598a7.976 7.976 0 00-2.292 5.597 2.41 2.41 0 004.82 0 3.192 3.192 0 013.187-3.188 3.192 3.192 0 013.188 3.188 2.41 2.41 0 004.82 0 7.976 7.976 0 00-2.293-5.597 7.98 7.98 0 002.292-5.598zm-8.007-3.187a3.19 3.19 0 013.188 3.187 3.191 3.191 0 01-3.188 3.188 3.191 3.191 0 01-3.187-3.188 3.19 3.19 0 013.187-3.187z" fill="#fff"/><path d="M64.454 65.534c12.778 0 23.137-10.359 23.137-23.137S77.232 19.26 64.454 19.26 41.317 29.619 41.317 42.397s10.359 23.137 23.137 23.137z" fill="#722C5B"/><path d="M72.461 39.599c0-4.415-3.592-8.008-8.007-8.008-4.415 0-8.007 3.593-8.007 8.008 0 2.177.876 4.152 2.292 5.597a7.977 7.977 0 00-2.292 5.597 2.41 2.41 0 004.82 0 3.191 3.191 0 013.187-3.187 3.191 3.191 0 013.188 3.187 2.41 2.41 0 004.82 0 7.977 7.977 0 00-2.293-5.597 7.977 7.977 0 002.292-5.597zm-8.007-3.188a3.191 3.191 0 013.188 3.188 3.191 3.191 0 01-3.188 3.187 3.191 3.191 0 01-3.187-3.187 3.191 3.191 0 013.187-3.188z" fill="#fff"/><path d="M152.503 201.705a2.344 2.344 0 01-2.344-2.344 2.816 2.816 0 00-2.813-2.813 2.343 2.343 0 010-4.687 2.816 2.816 0 002.813-2.813 2.343 2.343 0 014.687 0 2.816 2.816 0 002.813 2.813 2.343 2.343 0 110 4.687 2.816 2.816 0 00-2.813 2.813 2.344 2.344 0 01-2.343 2.344zM10.535 96.691a2.344 2.344 0 01-2.344-2.343 2.815 2.815 0 00-2.813-2.813 2.344 2.344 0 110-4.687 2.815 2.815 0 002.813-2.813 2.344 2.344 0 114.687 0 2.815 2.815 0 002.813 2.813 2.344 2.344 0 110 4.687 2.815 2.815 0 00-2.813 2.813 2.344 2.344 0 01-2.343 2.343z" fill="#5EBDE4"/><path d="M151.476 40.207c-.599 0-1.2-.229-1.657-.687l-5.156-5.156a2.342 2.342 0 010-3.314l5.156-5.156a2.343 2.343 0 013.314 0l5.156 5.156c.916.915.916 2.4 0 3.314l-5.156 5.156a2.333 2.333 0 01-1.657.687zm-1.841-7.5l1.842 1.842 1.841-1.842-1.841-1.842-1.842 1.842z" fill="#F3ADC8"/><defs><linearGradient id="npaint0_linear" x1=".222" y1="120" x2="197.779" y2="120" gradientUnits="userSpaceOnUse"><stop offset=".049" stop-color="#F3FAFF"/><stop offset=".999" stop-color="#FFEEF3"/></linearGradient></defs></svg><svg fill="none" viewBox="0 0 30 30" id="telegram" xmlns="http://www.w3.org/2000/svg"><path d="M15 30c8.284 0 15-6.716 15-15 0-8.284-6.716-15-15-15C6.716 0 0 6.716 0 15c0 8.284 6.716 15 15 15z" fill="#5EBDE4"/><path d="M6.864 14.675l14.462-5.576c.671-.243 1.258.164 1.04 1.178h.002l-2.463 11.6c-.183.823-.671 1.023-1.355.636l-3.75-2.764-1.809 1.742c-.2.2-.368.369-.756.369l.266-3.816 6.95-6.279c.303-.266-.067-.416-.466-.151l-8.589 5.407-3.702-1.155c-.804-.255-.821-.803.17-1.191z" fill="#fff"/></svg><svg viewBox="0 0 123.969 123.97" id="up-arrow" xmlns="http://www.w3.org/2000/svg"><path fill="#5EBDE4" d="M120.266 95.584c5.301-5.801 4.801-14.801-.8-20.301l-47.3-47.4c-2.8-2.8-6.5-4.2-10.2-4.2s-7.399 1.4-10.2 4.2l-47.299 47.3c-5.5 5.5-6.1 14.6-.8 20.3 5.6 6.101 15.099 6.3 20.9.5l30.3-30.3a9.959 9.959 0 0114.1 0l30.3 30.3c5.9 5.9 15.4 5.701 20.999-.399z"/></svg><svg fill="none" viewBox="0 0 35 35" id="viber" xmlns="http://www.w3.org/2000/svg"><g clip-path="url(#qclip0)" fill="#F3ADC8"><path d="M33.768 20.26c1.044-8.789-.502-14.338-3.29-16.848l.001-.001c-4.5-4.286-19.699-4.92-25.083.193-2.418 2.5-3.27 6.171-3.363 10.715-.093 4.546-.204 13.061 7.73 15.371h.008l-.007 3.528s-.054 1.43.859 1.716c1.044.339 1.516-.325 4.764-4.204 5.43.471 9.601-.608 10.075-.766 1.097-.367 7.302-1.188 8.306-9.703zm-17.846 7.988s-3.437 4.286-4.506 5.399c-.35.361-.734.328-.728-.39 0-.47.026-5.856.026-5.856-6.727-1.928-6.33-9.18-6.257-12.972.073-3.795.767-6.903 2.814-8.995 4.724-4.43 18.049-3.439 21.444-.248 4.15 3.68 2.673 14.074 2.681 14.429-.853 7.108-5.881 7.558-6.806 7.866-.395.131-4.063 1.075-8.668.767z"/><path d="M17.824 6.266c-.562 0-.562.875 0 .883 4.356.033 7.943 3.07 7.983 8.639 0 .587.86.58.853-.008h-.002c-.046-6-3.963-9.48-8.834-9.514z"/><path d="M23.553 14.865c-.013.58.846.608.854.02.071-3.309-1.97-6.034-5.803-6.322-.561-.04-.62.842-.06.883 3.325.252 5.077 2.521 5.01 5.419zM22.635 18.629c-.72-.418-1.454-.158-1.758.252l-.634.82c-.322.418-.924.363-.924.363-4.396-1.163-5.571-5.762-5.571-5.762s-.054-.623.348-.957l.794-.656c.396-.315.647-1.073.243-1.819-1.079-1.95-1.804-2.622-2.173-3.138-.388-.486-.971-.595-1.578-.267h-.013c-1.261.738-2.642 2.119-2.2 3.54.754 1.5 2.139 6.279 6.555 9.89 2.075 1.707 5.36 3.457 6.753 3.861l.013.02c1.374.459 2.71-.976 3.423-2.276v-.01c.317-.628.212-1.223-.25-1.613-.82-.799-2.057-1.681-3.028-2.248z"/><path d="M19.205 11.818c1.401.082 2.08.814 2.154 2.318.026.587.88.546.853-.041-.093-1.963-1.117-3.057-2.96-3.159-.562-.034-.614.849-.047.882z"/></g><defs><clipPath id="qclip0"><path fill="#fff" d="M0 0h35v35H0z"/></clipPath></defs></svg><svg fill="none" viewBox="0 0 90 90" id="yarn" xmlns="http://www.w3.org/2000/svg"><path d="M87.363 0h-15.82c-4.362 0-7.91 3.548-7.91 7.91s3.548 7.91 7.91 7.91h2.637a5.28 5.28 0 015.273 5.274c0 1.757-.92 3.24-2.246 4.199.99 1.484 1.866 3.046 2.676 4.647 2.907-1.88 4.844-5.134 4.844-8.846 0-5.817-4.73-10.547-10.547-10.547h-2.637a2.639 2.639 0 01-2.637-2.637 2.639 2.639 0 012.637-2.637h15.82A2.635 2.635 0 0090 2.637 2.635 2.635 0 0087.363 0zM34.31 47.986a39.513 39.513 0 00-3.968 6.767 34.275 34.275 0 0119.12 16.904c2.46 4.903 3.627 10.394 3.58 15.811 1.26-.449 2.511-.922 3.716-1.493 1.017-2.991 1.601-6.302 1.601-9.51 0-14.164-10.256-26.094-24.048-28.48z" fill="#5EBDE4"/><path d="M45.59 37.541c-2.689 1.66-5.185 3.6-7.398 5.833 14.785 3.93 25.44 17.381 25.44 33.09 0 1.86-.188 3.87-.482 5.683.604-.44 1.166-1.108 1.744-1.58 2.587-4.421 4.012-9.477 4.012-14.649 0-13.937-9.765-25.68-23.316-28.377z" fill="#5EBDE4"/><path d="M69.007 23.41a39.246 39.246 0 00-13.284-2.316c-21.81 0-39.551 17.741-39.551 39.55 0 8.043 2.48 15.923 6.914 22.422-1.023-3.788-1.64-7.872-1.64-11.875 0-24.572 20.155-44.824 44.823-44.824 1.844 0 3.662.136 5.464.354a39.864 39.864 0 00-2.726-3.312z" fill="#5EBDE4"/><path d="M44.748 74.024A29.01 29.01 0 0028.44 59.672a39.407 39.407 0 00-1.721 11.52c0 6.074 1.366 12.145 3.988 17.51 2.956.707 6.025 1.298 9.195 1.298 2.668 0 5.269-.366 7.825-.89.3-5.118-.676-10.499-2.979-15.086zM75.375 32.717c-2.96-.7-5.999-1.076-9.105-1.076-4.82 0-9.419.909-13.693 2.493C65.41 39.212 74.18 51.575 74.18 65.918c0 1.498-.191 2.975-.386 4.45 1.197-1.989 2.275-4.06 3.113-6.276a39.467 39.467 0 002.546-13.994c0-6.242-1.492-12.127-4.078-17.381z" fill="#5EBDE4"/><path d="M39.902 10.547C18.092 10.547 0 28.288 0 50.097c0 12.92 6.606 24.554 16.216 31.776-3.418-6.411-5.318-13.776-5.318-21.229 0-24.716 20.108-44.824 44.825-44.824 1.413 0 2.809.098 4.198.226-5.88-3.47-12.71-5.5-20.019-5.5z" fill="#5EBDE4"/></svg></svg>