<svg width="236" height="240" viewBox="0 0 236 240" fill="none" xmlns="http://www.w3.org/2000/svg">
<path d="M214.175 12.8213C184.289 -4.98515 145.616 -3.99655 116.266 14.2467C99.775 24.4964 87.0278 39.2794 72.5725 52.0055C59.9059 63.1566 45.1764 71.1108 32.0945 81.6324C-15.3477 119.79 -10.8209 222.708 55.983 236.378C84.9409 242.304 124.519 244.205 141.539 215.921C157.767 188.954 163.21 161.367 194.918 147.042C205.968 142.05 224.438 142.302 231.923 131.363C241.369 117.557 229.648 103.217 223.396 91.1874C215.338 75.6839 213.648 60.3989 219.318 43.7686C224.145 29.6072 227.544 23.2458 214.175 12.8213Z" fill="url(#paint0_linear)"/>
<path d="M179.478 34.1611C178.857 34.1611 178.261 33.9145 177.821 33.4744L172.519 28.1724C171.604 27.2574 171.604 25.7733 172.519 24.8583L177.821 19.5563C178.261 19.1166 178.857 18.8695 179.478 18.8695C180.1 18.8695 180.696 19.1166 181.136 19.5563L186.438 24.8583C187.353 25.7733 187.353 27.2574 186.438 28.1724L181.136 33.4744C180.696 33.9141 180.1 34.1611 179.478 34.1611ZM177.491 26.5153L179.478 28.5024L181.465 26.5153L179.478 24.5283L177.491 26.5153Z" fill="#5EBDE4"/>
<path d="M203.223 172.763L181.361 194.625C178.408 197.578 173.359 195.483 173.359 191.311V184.959H62.0406C59.4484 184.959 57.3531 182.859 57.3531 180.272V158.62C57.3531 156.033 59.4484 153.933 62.0406 153.933H173.359V147.586C173.359 143.409 178.408 141.314 181.361 144.267L203.223 166.13C205.052 167.963 205.052 170.93 203.223 172.763Z" fill="#5EBDE4"/>
<path d="M173.355 136.036V157.688C173.355 160.275 171.259 162.375 168.667 162.375H57.3531V168.722C57.3531 172.898 52.3 174.989 49.3469 172.036L27.4844 150.173C25.6563 148.345 25.6563 145.378 27.4844 143.545L49.3469 121.683C52.3 118.73 57.3531 120.82 57.3531 124.997V131.348H168.667C171.259 131.348 173.355 133.448 173.355 136.036Z" fill="#722C5B"/>
<path d="M160.474 36.347V134.958C160.474 139.27 156.977 142.763 152.669 142.763H79.4501C75.1423 142.763 71.6501 139.27 71.6501 134.958V36.347C71.6501 32.0392 75.1423 28.547 79.4501 28.547H152.669C156.977 28.547 160.474 32.0392 160.474 36.347Z" fill="#F3ADC8"/>
<path d="M108.002 51.0985C108.002 53.0719 107.2 54.8532 105.911 56.1469C104.617 57.4407 102.831 58.2375 100.863 58.2375H71.6501V43.9594H100.863C104.805 43.9594 108.002 47.1563 108.002 51.0985Z" fill="#FFEEF3"/>
<path d="M108.002 74.1328C108.002 76.1063 107.2 77.8875 105.911 79.1813C104.617 80.475 102.831 81.2719 100.863 81.2719H71.65V66.9938H100.863C104.805 66.9938 108.002 70.1906 108.002 74.1328Z" fill="#FFEEF3"/>
<path d="M108.002 97.1719C108.002 99.1406 107.2 100.927 105.911 102.22C104.617 103.509 102.831 104.311 100.863 104.311H71.65V90.0328H100.863C104.805 90.0328 108.002 93.225 108.002 97.1719Z" fill="#FFEEF3"/>
<path d="M108.002 120.206C108.002 122.175 107.2 123.961 105.911 125.255C104.617 126.544 102.831 127.345 100.863 127.345H71.65V113.067H100.863C104.805 113.067 108.002 116.264 108.002 120.206Z" fill="#FFEEF3"/>
<path d="M130.783 127.344H160.47V113.066H130.783C126.84 113.066 123.644 116.263 123.644 120.205C123.644 124.148 126.84 127.344 130.783 127.344Z" fill="#FFEEF3"/>
<path d="M130.783 58.238H160.47V43.9603H130.783C126.84 43.9603 123.644 47.1567 123.644 51.0994C123.644 55.042 126.84 58.238 130.783 58.238Z" fill="#FFEEF3"/>
<path d="M130.783 81.2733H160.47V66.9956H130.783C126.84 66.9956 123.644 70.192 123.644 74.1347C123.644 78.0774 126.84 81.2733 130.783 81.2733Z" fill="#FFEEF3"/>
<path d="M130.783 104.309H160.47V90.0309H130.783C126.84 90.0309 123.644 93.2274 123.644 97.17C123.644 101.113 126.84 104.309 130.783 104.309Z" fill="#FFEEF3"/>
<path d="M137.691 104.882H163.441C179.701 104.882 192.882 91.7008 192.882 75.4412C192.882 59.1812 179.701 46 163.441 46C147.181 46 134 59.1812 134 75.4412V101.191C134 103.229 135.653 104.882 137.691 104.882Z" fill="white"/>
<path d="M154.246 76.5087C154.801 74.1585 153.347 71.803 150.996 71.2475C148.646 70.6919 146.291 72.1468 145.735 74.4969C145.18 76.8471 146.634 79.2026 148.985 79.7582C151.335 80.3137 153.69 78.8589 154.246 76.5087Z" fill="#5EBDE4"/>
<path d="M166.506 78.5414C168.213 76.8337 168.213 74.065 166.506 72.3574C164.798 70.6497 162.029 70.6497 160.321 72.3574C158.614 74.065 158.614 76.8337 160.321 78.5414C162.029 80.2491 164.798 80.2491 166.506 78.5414Z" fill="#5EBDE4"/>
<path d="M179.972 78.5429C181.68 76.8352 181.68 74.0666 179.972 72.3589C178.264 70.6512 175.496 70.6512 173.788 72.3589C172.08 74.0666 172.08 76.8352 173.788 78.5429C175.496 80.2506 178.264 80.2506 179.972 78.5429Z" fill="#5EBDE4"/>
<path d="M52.8616 89.9006C51.5669 89.9006 50.5178 88.8516 50.5178 87.5569C50.5178 86.0058 49.2564 84.7444 47.7053 84.7444C46.4106 84.7444 45.3616 83.6953 45.3616 82.4006C45.3616 81.1059 46.4106 80.0569 47.7053 80.0569C49.2564 80.0569 50.5178 78.7955 50.5178 77.2444C50.5178 75.9497 51.5669 74.9006 52.8616 74.9006C54.1563 74.9006 55.2053 75.9497 55.2053 77.2444C55.2053 78.7955 56.4667 80.0569 58.0178 80.0569C59.3125 80.0569 60.3616 81.1059 60.3616 82.4006C60.3616 83.6953 59.3125 84.7444 58.0178 84.7444C56.4667 84.7444 55.2053 86.0058 55.2053 87.5569C55.2053 88.8516 54.1563 89.9006 52.8616 89.9006Z" fill="#5EBDE4"/>
<path d="M54.7909 213.529C54.1914 213.529 53.5914 213.3 53.1339 212.843L47.8323 207.541C47.3927 207.101 47.1456 206.505 47.1456 205.883C47.1456 205.262 47.3922 204.666 47.8323 204.226L53.1339 198.924C53.5736 198.485 54.1694 198.238 54.7909 198.238C55.4125 198.238 56.0088 198.485 56.4484 198.924L61.75 204.227C62.665 205.142 62.665 206.626 61.7495 207.541L56.448 212.843C55.9909 213.3 55.3909 213.529 54.7909 213.529ZM52.8039 205.884L54.7909 207.87L56.7775 205.884L54.7909 203.897L52.8039 205.884Z" fill="#F3ADC8"/>
<defs>
<linearGradient id="paint0_linear" x1="0.531657" y1="120" x2="235.47" y2="120" gradientUnits="userSpaceOnUse">
<stop offset="0.0485" stop-color="#F3FAFF"/>
<stop offset="0.9993" stop-color="#FFEEF3"/>
</linearGradient>
</defs>
</svg>
