<svg width="90" height="90" viewBox="0 0 90 90" fill="none" xmlns="http://www.w3.org/2000/svg">
<path d="M87.3633 0H71.543C67.1811 0 63.6328 3.54832 63.6328 7.91016C63.6328 12.272 67.1811 15.8203 71.543 15.8203H74.1797C77.0868 15.8203 79.4531 18.1867 79.4531 21.0938C79.4531 22.8509 78.5326 24.3339 77.2068 25.2928C78.1972 26.7769 79.0727 28.3389 79.8834 29.9403C82.7896 28.0601 84.7266 24.8061 84.7266 21.0938C84.7266 15.277 79.9965 10.5469 74.1797 10.5469H71.543C70.0882 10.5469 68.9062 9.36492 68.9062 7.91016C68.9062 6.45539 70.0882 5.27344 71.543 5.27344H87.3633C88.8207 5.27344 90 4.09412 90 2.63672C90 1.17932 88.8207 0 87.3633 0Z" fill="#5EBDE4"/>
<path d="M34.3109 47.9858C32.774 50.0963 31.4425 52.3573 30.3416 54.7534C38.6064 57.705 45.4814 63.7219 49.4629 71.6574C51.9222 76.5598 53.089 82.0512 53.0423 87.4684C54.3026 87.0191 55.5531 86.5459 56.7576 85.9746C57.7748 82.9837 58.3593 79.6725 58.3593 76.4648C58.3593 62.3015 48.1034 50.3715 34.3109 47.9858Z" fill="#5EBDE4"/>
<path d="M45.5901 37.5415C42.901 39.2004 40.4046 41.1406 38.1917 43.3741C52.9771 47.3049 63.6328 60.7554 63.6328 76.4649C63.6328 78.3235 63.4442 80.3335 63.1503 82.1465C63.7536 81.7069 64.3155 81.0389 64.8935 80.5664C67.4814 76.1457 68.9063 71.0897 68.9063 65.9181C68.9063 51.9812 59.1414 40.2383 45.5901 37.5415Z" fill="#5EBDE4"/>
<path d="M69.007 23.4091C64.7613 21.8897 60.3125 21.0938 55.7227 21.0938C33.9131 21.0938 16.1719 38.835 16.1719 60.6445C16.1719 68.687 18.6525 76.567 23.0862 83.066C22.0634 79.2777 21.4453 75.1938 21.4453 71.1914C21.4453 46.6189 41.6007 26.3672 66.2695 26.3672C68.1128 26.3672 69.9314 26.5031 71.7328 26.7209C70.8827 25.567 69.9741 24.4629 69.007 23.4091Z" fill="#5EBDE4"/>
<path d="M44.7483 74.0237C41.3571 67.2649 35.4879 62.153 28.4404 59.6724C27.3277 63.3198 26.7188 67.1847 26.7188 71.1913C26.7188 77.2656 28.0854 83.3369 30.707 88.7011C33.6633 89.4089 36.732 89.9999 39.9023 89.9999C42.5703 89.9999 45.1707 89.6336 47.7265 89.1096C48.0262 83.9921 47.0514 78.6112 44.7483 74.0237Z" fill="#5EBDE4"/>
<path d="M75.3752 32.7166C72.4145 32.0179 69.376 31.6406 66.2696 31.6406C61.4509 31.6406 56.8512 32.5496 52.5771 34.1344C65.4098 39.2115 74.1797 51.5751 74.1797 65.918C74.1797 67.4156 73.9888 68.8929 73.7944 70.3675C74.9908 68.3793 76.0685 66.3071 76.9066 64.0923C77.6173 62.2127 78.1863 60.2659 78.601 58.3014C79.1673 55.6158 79.4532 52.8553 79.4532 50.0977C79.4532 43.8564 77.9606 37.971 75.3752 32.7166Z" fill="#5EBDE4"/>
<path d="M39.9023 10.5469C18.0928 10.5469 0 28.2881 0 50.0977C0 63.0179 6.60639 74.6506 16.2163 81.8726C12.7985 75.4617 10.8984 68.0966 10.8984 60.6445C10.8984 35.9279 31.0061 15.8203 55.7227 15.8203C57.1359 15.8203 58.5316 15.9175 59.921 16.046C54.0403 12.5752 47.2119 10.5469 39.9023 10.5469Z" fill="#5EBDE4"/>
</svg>
