<svg width="1439" height="259" viewBox="0 0 1439 259" fill="none" xmlns="http://www.w3.org/2000/svg">
<path fill-rule="evenodd" clip-rule="evenodd" d="M0 259L48 238C96 216 192 173 288 180C384 187 480 227 576 227C672 227 768 187 864 187C960 187 1091 234 1187 227C1283 219 1394.5 198.5 1440 160V0.000244141H1392C1344 0.000244141 1248 0.000244141 1152 0.000244141C1056 0.000244141 960 0.000244141 864 0.000244141C768 0.000244141 672 0.000244141 576 0.000244141C480 0.000244141 384 0.000244141 288 0.000244141C192 0.000244141 96 0.000244141 48 0.000244141H0V259Z" fill="#F3FAFF"/>
</svg>
