<?xml version="1.0" standalone="no"?>
<!DOCTYPE svg PUBLIC "-//W3C//DTD SVG 20010904//EN"
 "http://www.w3.org/TR/2001/REC-SVG-20010904/DTD/svg10.dtd">
<svg version="1.0" xmlns="http://www.w3.org/2000/svg"
 width="724.000000pt" height="724.000000pt" viewBox="0 0 724.000000 724.000000"
 preserveAspectRatio="xMidYMid meet">
<metadata>
Created by potrace 1.11, written by Peter Selinger 2001-2013
</metadata>
<g transform="translate(0.000000,724.000000) scale(0.100000,-0.100000)"
fill="#000000" stroke="none">
<path d="M3058 7225 c-2 -2 -37 -6 -78 -10 -41 -4 -88 -8 -105 -10 -95 -10
-187 -33 -275 -68 -30 -12 -57 -22 -60 -23 -66 -13 -376 -178 -388 -206 -2 -5
-8 -8 -14 -8 -23 0 -227 -218 -306 -329 -67 -93 -84 -108 -133 -121 -24 -6
-53 -15 -64 -20 -11 -5 -45 -16 -75 -26 -30 -9 -59 -19 -65 -23 -5 -3 -15 -6
-20 -7 -25 -4 -176 -71 -240 -107 -103 -57 -260 -168 -345 -243 -14 -13 -36
-32 -50 -44 -86 -73 -223 -216 -292 -304 -27 -34 -53 -67 -59 -74 -26 -31
-114 -181 -141 -241 -64 -140 -119 -281 -110 -281 4 0 2 -4 -4 -8 -6 -4 -19
-32 -29 -62 -10 -30 -22 -61 -28 -67 -5 -7 -7 -13 -3 -13 3 0 0 -17 -8 -37
-16 -44 -27 -77 -27 -80 0 -2 -6 -20 -14 -42 -7 -22 -16 -56 -19 -76 -4 -21
-8 -40 -11 -44 -17 -29 -27 -426 -12 -506 4 -22 10 -56 12 -75 6 -43 37 -152
58 -203 9 -20 17 -41 18 -45 11 -48 289 -372 320 -372 5 0 9 -4 9 -9 0 -16
132 -115 191 -143 135 -67 179 -80 262 -82 55 -1 60 -3 85 -37 15 -19 34 -43
42 -53 23 -28 245 -250 261 -261 96 -70 90 -66 236 -140 65 -33 121 -64 125
-70 4 -5 8 -7 8 -2 0 4 17 -1 38 -11 111 -57 314 -124 415 -138 23 -3 53 -8
67 -11 14 -2 50 -6 80 -9 30 -2 66 -6 80 -8 14 -2 48 -4 75 -5 l50 -2 -35 -26
c-72 -55 -236 -232 -275 -296 -35 -58 -65 -85 -65 -59 0 11 -126 136 -143 141
-6 2 -14 7 -17 10 -23 27 -192 87 -212 75 -4 -3 -8 -2 -8 3 0 18 -152 6 -245
-18 -111 -30 -246 -138 -348 -279 -26 -36 -52 -70 -57 -77 -6 -7 -10 -14 -10
-17 0 -3 -13 -24 -29 -48 -48 -72 -118 -218 -150 -314 -36 -107 -56 -195 -77
-339 -8 -60 -12 -346 -5 -360 3 -5 7 -21 8 -35 13 -113 101 -356 134 -368 5
-2 9 -10 9 -18 0 -8 5 -14 10 -14 6 0 10 -6 10 -13 0 -24 168 -186 242 -234
68 -44 188 -93 228 -93 11 0 21 -4 24 -8 4 -8 31 -11 139 -17 59 -3 138 13
203 40 62 25 126 74 169 128 59 73 143 155 189 185 23 15 43 29 46 32 3 3 19
11 35 19 17 7 37 17 45 21 16 7 93 5 117 -4 7 -3 26 -33 44 -68 17 -35 46 -81
63 -103 42 -54 128 -135 144 -135 6 0 12 -4 12 -9 0 -9 86 -49 121 -57 11 -2
28 -6 40 -9 11 -2 28 -6 37 -9 84 -26 330 -39 427 -24 55 9 183 46 224 65 31
14 36 14 63 -1 15 -10 28 -14 28 -10 0 3 6 2 13 -4 30 -24 124 -27 512 -17
249 6 287 9 303 19 7 4 12 5 12 2 0 -17 191 70 228 105 10 8 29 23 44 33 26
17 28 17 155 -39 70 -32 184 -75 253 -97 69 -23 132 -43 140 -46 19 -6 32 -8
95 -16 28 -3 82 -15 120 -27 85 -25 104 -28 225 -34 105 -5 194 7 255 35 103
48 258 173 323 260 62 83 166 302 187 396 2 10 12 46 21 79 9 33 18 71 19 85
1 14 6 52 10 85 10 70 10 171 0 253 -8 77 -35 202 -46 224 -5 10 -8 18 -5 18
6 0 -42 132 -73 203 -11 26 -20 48 -19 50 1 1 -18 31 -42 67 -42 63 -194 220
-212 220 -5 0 -20 11 -34 25 -14 14 -28 25 -33 25 -4 0 -16 8 -27 18 -57 53
-205 116 -300 128 -101 12 -169 9 -247 -11 -15 -4 -26 -3 -25 2 4 11 -33 94
-48 110 -7 7 -22 29 -35 50 -13 21 -26 40 -29 43 -35 30 -146 222 -155 269 -2
11 -9 29 -15 41 -6 12 -13 29 -15 38 -2 9 -11 42 -19 72 -8 30 -17 67 -21 83
-3 15 -7 37 -10 50 -5 24 1 37 26 52 54 33 140 98 175 132 l41 40 134 0 c114
0 278 8 287 14 1 1 11 3 22 4 11 1 21 3 23 5 1 1 13 4 27 6 47 8 65 11 68 14
1 1 5 3 10 4 111 25 490 194 600 267 90 61 302 257 302 280 0 4 13 22 30 40
38 43 139 248 175 354 39 114 64 208 59 217 -3 4 -1 8 3 8 5 0 9 8 9 18 1 22
12 100 19 132 3 14 7 68 9 120 4 105 -14 191 -54 270 -44 84 -113 205 -128
223 -8 9 -12 17 -8 17 4 0 -1 12 -12 28 -45 63 -116 214 -127 269 -13 66 -126
317 -177 391 -109 159 -372 343 -673 472 -169 72 -613 210 -676 210 -9 0 -33
17 -55 38 -37 36 -166 147 -215 186 -13 10 -62 43 -109 75 -47 31 -87 58 -90
61 -3 3 -59 32 -125 65 -66 33 -121 63 -123 68 -2 4 -8 7 -14 7 -6 0 -39 13
-72 29 -126 59 -351 127 -486 146 -25 3 -54 8 -65 10 -26 4 -105 13 -180 21
-61 6 -721 14 -727 9z"/>
</g>
</svg>
