<svg width="90" height="90" viewBox="0 0 90 90" fill="none" xmlns="http://www.w3.org/2000/svg">
<path d="M72.4792 30.963C73.5485 31.493 74.7287 30.4914 74.3666 29.3543C71.9997 21.9226 64.577 4.09047 47.6471 3.18836C28.3585 2.16074 22.5517 14.2798 24.4306 20.8449L26.687 25.3085C27.7155 28.5914 31.0191 34.3997 41.503 34.084C55.0117 33.6771 61.1011 25.3231 72.4792 30.963Z" fill="#5EBDE4"/>
<path d="M49.5758 10.9148C59.6595 10.9189 66.934 16.608 71.939 23.0464C68.1636 14.7349 60.756 3.88674 47.6471 3.18836C28.3585 2.16074 22.5517 14.2798 24.4306 20.8449L25.7782 23.5106C28.0487 17.2653 35.1853 10.909 49.5758 10.9148Z" fill="#5EBDE4"/>
<path d="M81.0967 46.5806L76.1029 46.3029C72.7455 45.5521 66.0635 45.509 61.0951 54.7462C54.6933 66.6483 58.8832 76.099 48.31 83.1327C47.3163 83.7938 47.5937 85.3166 48.7596 85.5715C56.379 87.2376 75.5336 89.7254 84.7797 75.5147C95.3137 59.3242 87.7217 48.2359 81.0967 46.5806Z" fill="#5EBDE4"/>
<path d="M56.2772 86.0193C66.8505 78.5335 62.6606 68.4753 69.0623 55.8083C72.5813 48.8456 76.9595 46.8378 80.4076 46.5425L76.1027 46.3031C72.7453 45.5523 66.0633 45.5093 61.0949 54.7464C54.6931 66.6486 58.883 76.0992 48.3098 83.133C47.3161 83.7941 47.5935 85.3169 48.7594 85.5718C50.5528 85.9639 52.9852 86.4014 55.7768 86.6561C55.8742 86.4118 56.038 86.1887 56.2772 86.0193Z" fill="#5EBDE4"/>
<path d="M14.174 35.7682C14.0984 34.5772 12.6408 34.056 11.8371 34.9382C6.5846 40.7038 -5.14722 56.0481 2.53653 71.1607C11.291 88.3791 24.6897 87.3483 29.4358 82.4385L32.1733 78.2526C34.502 75.7203 37.8803 69.9552 32.365 61.0338C25.2582 49.5386 14.9789 48.4419 14.174 35.7682Z" fill="#5EBDE4"/>
<path d="M9.96101 71.1607C4.02804 59.4915 9.67079 47.6855 14.9683 40.2565C14.5566 38.9299 14.281 37.4521 14.1741 35.7682C14.0985 34.5772 12.641 34.056 11.8373 34.9382C6.58478 40.7038 -5.14704 56.0481 2.53671 71.1607C9.23116 84.3275 18.6411 86.8227 24.8214 85.0726C19.8086 83.7659 14.3114 79.7173 9.96101 71.1607Z" fill="#5EBDE4"/>
<path d="M18.273 28.1245C17.929 28.3998 17.7511 28.803 17.7458 29.2122L18.6645 30.3604C19.1902 31.0177 20.1718 31.0651 20.7591 30.4624C24.3258 26.8023 36.2466 15.9479 49.5515 19.031C49.8391 19.0976 50.0778 18.9965 50.2311 18.8221C44.769 16.3405 34.3417 15.2696 18.273 28.1245Z" fill="#F3FAFF"/>
<path d="M18.5092 28.1467C34.3449 15.4783 44.6152 16.5483 49.9878 18.9971C50.4614 18.7964 50.6143 18.0716 50.071 17.7441C45.285 14.8592 34.5686 12.0216 17.0153 26.0642C16.4131 26.5458 16.3178 27.4269 16.7994 28.0291L18.0264 29.5628C17.9047 29.0528 18.0735 28.4954 18.5092 28.1467Z" fill="#ADE1EE"/>
<path d="M80.2841 37.549C80.168 36.7866 79.4526 36.2635 78.6904 36.3797L77.1594 36.6129C76.831 36.9569 76.6811 37.4597 76.8217 37.9585C78.2081 42.8774 81.6478 58.6285 72.3252 68.6092C72.0826 68.8688 72.0853 69.1886 72.2238 69.431L72.2783 69.5185C77.1135 66.176 83.378 57.863 80.2841 37.549Z" fill="#F3FAFF"/>
<path d="M72.5062 68.609C81.8288 58.6282 78.3891 42.8773 77.0027 37.9584C76.8579 37.4446 77.0194 36.9252 77.3689 36.5808L75.739 36.829C74.9069 36.9558 74.375 37.7819 74.6035 38.5921C75.9899 43.511 79.4296 59.262 70.107 69.2427C69.5591 69.8293 70.2591 70.724 70.9616 70.3359C71.4208 70.0822 71.9059 69.7829 72.405 69.4306C72.2663 69.1884 72.2638 68.8688 72.5062 68.609Z" fill="#ADE1EE"/>
<path d="M39.6005 80.8094C34.6474 79.5507 19.2869 74.6539 15.3044 61.59C15.1827 61.1907 14.8203 61.0441 14.4981 61.1063C14.6946 61.1441 14.8767 61.2619 14.9813 61.4719C15.6697 67.4313 20.1004 76.7675 38.8721 84.1015C39.2627 84.254 39.6793 84.218 40.0259 84.0406L40.5596 82.6745C40.866 81.8905 40.4163 81.0169 39.6005 80.8094Z" fill="#F3FAFF"/>
<path d="M38.886 83.8514C20.3184 76.5971 15.936 67.3625 15.255 61.468C14.9442 60.8436 13.9447 61.0273 13.9305 61.7839C13.825 67.3711 16.7258 78.0707 37.6636 86.251C38.3818 86.5316 39.1925 86.1737 39.4731 85.4554L40.1506 83.7214C39.7865 83.9562 39.3198 84.0209 38.886 83.8514Z" fill="#ADE1EE"/>
</svg>
