<svg width="1440" height="244" viewBox="0 0 1440 244" fill="none" xmlns="http://www.w3.org/2000/svg">
<path fill-rule="evenodd" clip-rule="evenodd" d="M0 243C63.5 246 193 173 289 180C385 187 453 227 549 227C645 227 722 189 818 189C914 189 987.245 227 1083.5 227C1125.5 227 1238.11 200.172 1284.5 207.5C1351.39 218.065 1369.5 243 1440 243L1441 0.000244141H1393C1345 0.000244141 1249 0.000244141 1153 0.000244141C1057 0.000244141 961 0.000244141 865 0.000244141C769 0.000244141 673 0.000244141 577 0.000244141C481 0.000244141 385 0.000244141 289 0.000244141C193 0.000244141 97 0.000244141 49 0.000244141H1L0 243Z" fill="#F3FAFF"/>
</svg>
