<svg width="1440" height="240" viewBox="0 0 1440 240" fill="none" xmlns="http://www.w3.org/2000/svg">
<path fill-rule="evenodd" clip-rule="evenodd" d="M0 240C100 240 256.5 175 398 181C494.168 185.078 575.5 235 774.5 235C932.5 235 1041.5 194 1137.5 194C1257.5 194 1340 240 1440 240L1441 0.000244141H1393C1345 0.000244141 1249 0.000244141 1153 0.000244141C1057 0.000244141 961 0.000244141 865 0.000244141C769 0.000244141 673 0.000244141 577 0.000244141C481 0.000244141 385 0.000244141 289 0.000244141C193 0.000244141 97 0.000244141 49 0.000244141H1L0 240Z" fill="#F3FAFF"/>
</svg>
