<svg width="884" height="498" viewBox="0 0 884 498" fill="none" xmlns="http://www.w3.org/2000/svg">
<g clip-path="url(#clip0)">
<path d="M200.2 183.298C200.562 183.131 200.863 182.854 201.06 182.507C201.257 182.16 201.34 181.76 201.298 181.363C201.256 180.966 201.091 180.592 200.826 180.294C200.561 179.995 200.209 179.788 199.82 179.699L192.295 177.823C192.258 177.812 192.225 177.791 192.2 177.763C192.175 177.734 192.158 177.699 192.153 177.661L191.016 170.032C190.959 169.644 190.785 169.283 190.517 168.997C190.249 168.712 189.899 168.516 189.516 168.435C189.132 168.355 188.734 168.394 188.373 168.548C188.013 168.702 187.708 168.963 187.501 169.295L183.399 175.852C183.379 175.885 183.35 175.91 183.315 175.927C183.28 175.943 183.242 175.949 183.204 175.943L175.559 174.64C175.167 174.564 174.761 174.613 174.399 174.78C174.036 174.947 173.735 175.223 173.537 175.569C173.339 175.916 173.255 176.316 173.296 176.713C173.337 177.11 173.501 177.484 173.765 177.783L178.735 183.708C178.759 183.738 178.775 183.774 178.779 183.812C178.784 183.851 178.777 183.89 178.76 183.924L175.19 190.751C175.007 191.099 174.935 191.494 174.984 191.884C175.033 192.274 175.201 192.639 175.465 192.93C175.729 193.22 176.076 193.423 176.459 193.51C176.842 193.596 177.243 193.563 177.606 193.413L184.777 190.518C184.812 190.503 184.851 190.499 184.889 190.507C184.927 190.515 184.961 190.534 184.987 190.562L190.391 196.094C190.658 196.383 191.009 196.581 191.394 196.662C191.779 196.743 192.18 196.702 192.54 196.544C192.899 196.386 193.199 196.121 193.4 195.785C193.601 195.449 193.694 195.059 193.664 194.668L193.126 186.954C193.122 186.915 193.131 186.876 193.151 186.842C193.17 186.808 193.2 186.782 193.235 186.765L200.2 183.298Z" fill="#FFA9C8"/>
</g>
<g clip-path="url(#clip1)">
<path d="M151.051 409.149C151.413 408.981 151.713 408.705 151.91 408.357C152.107 408.01 152.19 407.61 152.149 407.213C152.107 406.816 151.941 406.443 151.676 406.144C151.411 405.846 151.059 405.638 150.67 405.55L143.145 403.673C143.108 403.663 143.075 403.642 143.05 403.613C143.025 403.585 143.009 403.549 143.003 403.512L141.866 395.883C141.81 395.495 141.636 395.134 141.368 394.848C141.099 394.562 140.75 394.366 140.366 394.286C139.983 394.205 139.584 394.245 139.224 394.399C138.863 394.552 138.559 394.813 138.352 395.146L134.25 401.703C134.229 401.735 134.2 401.761 134.166 401.777C134.131 401.793 134.092 401.799 134.055 401.794L126.409 400.49C126.017 400.415 125.612 400.464 125.249 400.631C124.887 400.797 124.585 401.073 124.387 401.42C124.19 401.767 124.105 402.166 124.146 402.563C124.187 402.96 124.351 403.335 124.615 403.634L129.585 409.559C129.61 409.588 129.625 409.624 129.63 409.663C129.634 409.701 129.627 409.74 129.61 409.775L126.041 416.602C125.857 416.949 125.785 417.345 125.834 417.734C125.883 418.124 126.051 418.489 126.315 418.78C126.579 419.071 126.926 419.274 127.31 419.36C127.693 419.447 128.093 419.413 128.457 419.264L135.627 416.368C135.663 416.353 135.702 416.349 135.739 416.357C135.777 416.365 135.811 416.384 135.838 416.412L141.242 421.944C141.509 422.233 141.859 422.432 142.244 422.513C142.629 422.593 143.03 422.552 143.391 422.395C143.749 422.237 144.049 421.971 144.251 421.635C144.452 421.299 144.544 420.909 144.514 420.519L143.976 412.804C143.973 412.765 143.982 412.726 144.001 412.693C144.021 412.659 144.05 412.632 144.086 412.616L151.051 409.149Z" fill="#722C5B" fill-opacity="0.8"/>
</g>
<g clip-path="url(#clip2)">
<path d="M391.051 481.149C391.413 480.981 391.713 480.705 391.91 480.357C392.107 480.01 392.19 479.61 392.148 479.213C392.107 478.816 391.941 478.443 391.676 478.144C391.411 477.846 391.059 477.638 390.67 477.55L383.145 475.673C383.108 475.663 383.075 475.642 383.05 475.613C383.025 475.585 383.009 475.549 383.003 475.512L381.866 467.883C381.81 467.495 381.636 467.134 381.368 466.848C381.099 466.562 380.75 466.366 380.366 466.286C379.983 466.205 379.584 466.245 379.224 466.399C378.863 466.552 378.559 466.813 378.352 467.146L374.25 473.703C374.229 473.735 374.2 473.761 374.165 473.777C374.131 473.793 374.092 473.799 374.054 473.794L366.409 472.49C366.017 472.415 365.612 472.464 365.249 472.631C364.887 472.797 364.585 473.073 364.387 473.42C364.19 473.767 364.105 474.166 364.146 474.563C364.187 474.96 364.351 475.335 364.615 475.634L369.585 481.559C369.61 481.588 369.625 481.624 369.63 481.663C369.634 481.701 369.627 481.74 369.61 481.775L366.041 488.602C365.857 488.949 365.785 489.345 365.834 489.734C365.883 490.124 366.051 490.489 366.315 490.78C366.579 491.071 366.926 491.274 367.309 491.36C367.693 491.447 368.093 491.413 368.457 491.264L375.627 488.368C375.663 488.353 375.702 488.349 375.739 488.357C375.777 488.365 375.811 488.384 375.838 488.412L381.242 493.944C381.509 494.233 381.859 494.432 382.244 494.513C382.629 494.593 383.03 494.552 383.391 494.395C383.749 494.237 384.049 493.971 384.251 493.635C384.452 493.299 384.544 492.909 384.514 492.519L383.976 484.804C383.973 484.765 383.982 484.726 384.001 484.693C384.021 484.659 384.05 484.632 384.086 484.616L391.051 481.149Z" fill="#FFEEF3"/>
</g>
<g clip-path="url(#clip3)">
<path d="M32.0507 222.149C32.4128 221.981 32.7134 221.705 32.9103 221.357C33.1072 221.01 33.1905 220.61 33.1485 220.213C33.1066 219.816 32.9415 219.443 32.6763 219.144C32.4112 218.846 32.0594 218.638 31.6702 218.55L24.1451 216.673C24.1084 216.663 24.0754 216.642 24.0502 216.613C24.025 216.585 24.0086 216.549 24.0031 216.512L22.8661 208.883C22.8099 208.495 22.6359 208.134 22.3677 207.848C22.0994 207.562 21.7499 207.366 21.3664 207.286C20.9829 207.205 20.584 207.245 20.2236 207.399C19.8632 207.552 19.5588 207.813 19.3516 208.146L15.2496 214.703C15.2293 214.735 15.2001 214.761 15.1655 214.777C15.1309 214.793 15.0924 214.799 15.0545 214.794L7.40934 213.49C7.01746 213.415 6.61178 213.464 6.24918 213.631C5.88658 213.797 5.58524 214.073 5.38743 214.42C5.18961 214.767 5.10523 215.166 5.14612 215.563C5.18701 215.96 5.35111 216.335 5.61543 216.634L10.585 222.559C10.6098 222.588 10.6255 222.624 10.6299 222.663C10.6344 222.701 10.6274 222.74 10.61 222.775L7.04081 229.602C6.85722 229.949 6.78507 230.345 6.83416 230.734C6.88326 231.124 7.05122 231.489 7.3152 231.78C7.57918 232.071 7.92636 232.274 8.30951 232.36C8.69266 232.447 9.09318 232.413 9.45658 232.264L16.6272 229.368C16.6627 229.353 16.7018 229.349 16.7394 229.357C16.7771 229.365 16.8114 229.384 16.8379 229.412L22.2417 234.944C22.5088 235.233 22.8592 235.432 23.2444 235.513C23.6295 235.593 24.0302 235.552 24.3908 235.395C24.7491 235.237 25.0494 234.971 25.2506 234.635C25.4518 234.299 25.544 233.909 25.5144 233.519L24.9761 225.804C24.9728 225.765 24.9816 225.726 25.0012 225.693C25.0209 225.659 25.0504 225.632 25.0859 225.616L32.0507 222.149Z" fill="#F1ECCC"/>
</g>
<g clip-path="url(#clip4)">
<path d="M374.408 62.2114L354.833 66.313C354.588 66.3642 354.405 66.6075 354.283 67.0427C354.162 67.478 354.155 67.9556 354.264 68.4755C354.373 68.9955 354.571 69.4304 354.857 69.7802C355.143 70.13 355.408 70.2792 355.653 70.228L375.228 66.1264C375.473 66.0751 375.656 65.8319 375.777 65.3966C375.899 64.9614 375.905 64.4838 375.797 63.9638C375.688 63.4439 375.49 63.009 375.204 62.6592C374.918 62.3094 374.652 62.1601 374.408 62.2114ZM350.368 49.8794C349.827 49.9926 349.406 50.2804 349.104 50.7429C348.802 51.2053 348.707 51.7067 348.82 52.247C348.934 52.7874 349.221 53.2087 349.684 53.5109C350.146 53.8131 350.648 53.9076 351.188 53.7944L354.664 64.2889L373.75 60.2899L372.72 49.2826C373.261 49.1694 373.682 48.8816 373.984 48.4192C374.286 47.9567 374.381 47.4553 374.268 46.915C374.154 46.3746 373.867 45.9534 373.404 45.6511C372.942 45.3489 372.44 45.2544 371.9 45.3676C371.36 45.4809 370.938 45.7687 370.636 46.2311C370.334 46.6936 370.239 47.1949 370.353 47.7353C370.472 48.3062 370.782 48.7416 371.281 49.0415C370.112 51.234 369.309 52.6607 368.873 53.3215C368.437 53.9823 368.035 54.3512 367.668 54.4281C367.322 54.5007 366.827 54.2504 366.186 53.6771C365.544 53.1038 364.387 51.8962 362.713 50.0545C362.962 49.8214 363.14 49.5393 363.246 49.2084C363.352 48.8775 363.369 48.5387 363.296 48.1921C363.183 47.6518 362.895 47.2305 362.433 46.9283C361.971 46.626 361.469 46.5315 360.929 46.6448C360.388 46.758 359.967 47.0458 359.665 47.5082C359.363 47.9707 359.268 48.4721 359.381 49.0124C359.454 49.3591 359.605 49.6626 359.836 49.923C360.066 50.1834 360.342 50.3704 360.664 50.4839C359.87 52.8426 359.294 54.4133 358.937 55.1959C358.579 55.9786 358.227 56.4062 357.881 56.4789C357.514 56.5558 356.998 56.3792 356.333 55.9491C355.668 55.519 354.36 54.5345 352.409 52.9956C352.746 52.5206 352.855 51.9976 352.735 51.4267C352.622 50.8864 352.334 50.4651 351.872 50.1629C351.409 49.8607 350.908 49.7662 350.368 49.8794Z" fill="#FFA9C8"/>
</g>
<g clip-path="url(#clip5)">
<path d="M795.525 28.174L777.755 18.9963C777.533 18.8816 777.238 18.9546 776.869 19.2153C776.499 19.476 776.193 19.8424 775.949 20.3144C775.705 20.7864 775.584 21.2484 775.585 21.7003C775.586 22.1522 775.698 22.4355 775.92 22.5503L793.69 31.728C793.912 31.8427 794.208 31.7697 794.577 31.509C794.946 31.2483 795.252 30.8819 795.496 30.4099C795.74 29.9379 795.861 29.4759 795.86 29.024C795.859 28.5721 795.748 28.2887 795.525 28.174ZM784.668 3.43298C784.178 3.17963 783.669 3.13687 783.143 3.30469C782.616 3.4725 782.227 3.80167 781.973 4.29219C781.72 4.78272 781.677 5.29114 781.845 5.81746C782.013 6.34378 782.342 6.73361 782.833 6.98696L778.903 17.3201L796.228 26.2684L802.379 17.0825C802.87 17.3358 803.378 17.3786 803.905 17.2108C804.431 17.0429 804.821 16.7138 805.074 16.2232C805.328 15.7327 805.37 15.2243 805.202 14.698C805.035 14.1717 804.705 13.7818 804.215 13.5285C803.724 13.2751 803.216 13.2324 802.69 13.4002C802.163 13.568 801.774 13.8972 801.52 14.3877C801.253 14.906 801.218 15.439 801.415 15.9867C799.125 16.949 797.601 17.5487 796.846 17.7857C796.09 18.0227 795.546 18.0552 795.213 17.8831C794.898 17.7206 794.673 17.2145 794.537 16.3648C794.402 15.5151 794.266 13.8478 794.131 11.3628C794.472 11.3393 794.788 11.2328 795.079 11.0433C795.37 10.8538 795.597 10.6017 795.76 10.287C796.013 9.79648 796.056 9.28805 795.888 8.76173C795.72 8.23541 795.391 7.84558 794.9 7.59224C794.41 7.33889 793.901 7.29613 793.375 7.46394C792.849 7.63176 792.459 7.96093 792.206 8.45145C792.043 8.76613 791.969 9.0971 791.983 9.44437C791.997 9.79164 792.093 10.1109 792.271 10.402C790.166 11.7302 788.728 12.5849 787.957 12.9662C787.186 13.3474 786.643 13.4568 786.328 13.2943C785.995 13.1222 785.706 12.6595 785.462 11.9062C785.218 11.1529 784.825 9.56379 784.284 7.13874C784.845 6.98303 785.26 6.64603 785.527 6.12774C785.781 5.63722 785.823 5.1288 785.656 4.60247C785.488 4.07615 785.159 3.68632 784.668 3.43298Z" fill="#F1ECCC"/>
</g>
<g clip-path="url(#clip6)">
<path d="M816.408 489.211L796.833 493.313C796.588 493.364 796.405 493.608 796.283 494.043C796.162 494.478 796.155 494.956 796.264 495.476C796.373 495.996 796.571 496.43 796.857 496.78C797.143 497.13 797.408 497.279 797.653 497.228L817.228 493.126C817.473 493.075 817.656 492.832 817.777 492.397C817.899 491.961 817.905 491.484 817.797 490.964C817.688 490.444 817.49 490.009 817.204 489.659C816.918 489.309 816.652 489.16 816.408 489.211ZM792.368 476.879C791.827 476.993 791.406 477.28 791.104 477.743C790.802 478.205 790.707 478.707 790.82 479.247C790.934 479.787 791.221 480.209 791.684 480.511C792.146 480.813 792.648 480.908 793.188 480.794L796.664 491.289L815.75 487.29L814.72 476.283C815.261 476.169 815.682 475.882 815.984 475.419C816.286 474.957 816.381 474.455 816.268 473.915C816.154 473.375 815.867 472.953 815.404 472.651C814.942 472.349 814.44 472.254 813.9 472.368C813.36 472.481 812.938 472.769 812.636 473.231C812.334 473.694 812.239 474.195 812.353 474.735C812.472 475.306 812.782 475.742 813.281 476.041C812.112 478.234 811.309 479.661 810.873 480.322C810.437 480.982 810.035 481.351 809.668 481.428C809.322 481.501 808.827 481.25 808.186 480.677C807.544 480.104 806.387 478.896 804.713 477.054C804.962 476.821 805.14 476.539 805.246 476.208C805.352 475.878 805.369 475.539 805.296 475.192C805.183 474.652 804.895 474.23 804.433 473.928C803.971 473.626 803.469 473.532 802.929 473.645C802.388 473.758 801.967 474.046 801.665 474.508C801.363 474.971 801.268 475.472 801.381 476.012C801.454 476.359 801.605 476.663 801.836 476.923C802.066 477.183 802.342 477.37 802.664 477.484C801.87 479.843 801.294 481.413 800.937 482.196C800.579 482.979 800.227 483.406 799.881 483.479C799.514 483.556 798.998 483.379 798.333 482.949C797.668 482.519 796.36 481.535 794.409 479.996C794.746 479.521 794.855 478.998 794.735 478.427C794.622 477.886 794.334 477.465 793.872 477.163C793.409 476.861 792.908 476.766 792.368 476.879Z" fill="#5EBDE4" fill-opacity="0.5"/>
</g>
<path d="M856.237 142.03C856.6 141.861 856.9 141.584 857.097 141.235C857.294 140.887 857.377 140.485 857.335 140.086C857.293 139.688 857.128 139.313 856.863 139.013C856.598 138.714 856.246 138.505 855.857 138.417L848.332 136.532C848.295 136.522 848.262 136.501 848.237 136.472C848.212 136.444 848.195 136.408 848.19 136.37L847.053 128.711C846.997 128.322 846.823 127.959 846.554 127.672C846.286 127.386 845.937 127.189 845.553 127.108C845.17 127.027 844.771 127.067 844.41 127.221C844.05 127.376 843.746 127.637 843.538 127.971L839.436 134.554C839.416 134.587 839.387 134.613 839.352 134.629C839.318 134.645 839.279 134.651 839.241 134.646L831.596 133.337C831.204 133.261 830.799 133.31 830.436 133.478C830.073 133.645 829.772 133.922 829.574 134.27C829.376 134.618 829.292 135.02 829.333 135.418C829.374 135.817 829.538 136.192 829.802 136.493L834.772 142.441C834.797 142.471 834.812 142.507 834.817 142.546C834.821 142.584 834.814 142.623 834.797 142.658L831.228 149.512C831.044 149.861 830.972 150.258 831.021 150.649C831.07 151.04 831.238 151.407 831.502 151.699C831.766 151.991 832.113 152.194 832.496 152.281C832.879 152.368 833.28 152.334 833.643 152.185L840.814 149.277C840.849 149.262 840.889 149.259 840.926 149.267C840.964 149.275 840.998 149.294 841.025 149.322L846.429 154.876C846.696 155.166 847.046 155.365 847.431 155.446C847.816 155.527 848.217 155.486 848.578 155.328C848.936 155.169 849.236 154.903 849.437 154.565C849.639 154.228 849.731 153.836 849.701 153.444L849.163 145.699C849.16 145.66 849.168 145.621 849.188 145.587C849.208 145.554 849.237 145.527 849.273 145.51L856.237 142.03Z" fill="#722C5B" fill-opacity="0.5"/>
<defs>
<clipPath id="clip0">
<rect width="31" height="31" fill="white" transform="translate(174.51 163.149) rotate(11.8397)"/>
</clipPath>
<clipPath id="clip1">
<rect width="31" height="31" fill="white" transform="translate(125.36 389) rotate(11.8397)"/>
</clipPath>
<clipPath id="clip2">
<rect width="31" height="31" fill="white" transform="translate(365.36 461) rotate(11.8397)"/>
</clipPath>
<clipPath id="clip3">
<rect width="31" height="31" fill="white" transform="translate(6.36041 202) rotate(11.8397)"/>
</clipPath>
<clipPath id="clip4">
<rect width="26" height="23" fill="white" transform="translate(348 48.332) rotate(-11.8341)"/>
</clipPath>
<clipPath id="clip5">
<rect width="26" height="23" fill="white" transform="translate(783.809 0.738281) rotate(27.3153)"/>
</clipPath>
<clipPath id="clip6">
<rect width="26" height="23" fill="white" transform="translate(790 475.332) rotate(-11.8341)"/>
</clipPath>
</defs>
</svg>
