<svg width="1230" height="529" viewBox="0 0 1230 529" fill="none" xmlns="http://www.w3.org/2000/svg">
<g opacity="0.5">
<g clip-path="url(#clip0)">
<path d="M542.051 175.149C542.413 174.981 542.713 174.705 542.91 174.357C543.107 174.01 543.19 173.61 543.149 173.213C543.107 172.816 542.941 172.443 542.676 172.144C542.411 171.846 542.059 171.638 541.67 171.55L534.145 169.673C534.108 169.663 534.075 169.642 534.05 169.613C534.025 169.585 534.009 169.549 534.003 169.512L532.866 161.883C532.81 161.495 532.636 161.134 532.368 160.848C532.099 160.562 531.75 160.366 531.366 160.286C530.983 160.205 530.584 160.245 530.224 160.399C529.863 160.552 529.559 160.813 529.352 161.146L525.25 167.703C525.229 167.735 525.2 167.761 525.166 167.777C525.131 167.793 525.092 167.799 525.055 167.794L517.409 166.49C517.017 166.415 516.612 166.464 516.249 166.631C515.887 166.797 515.585 167.073 515.387 167.42C515.19 167.767 515.105 168.166 515.146 168.563C515.187 168.96 515.351 169.335 515.615 169.634L520.585 175.559C520.61 175.588 520.625 175.624 520.63 175.663C520.634 175.701 520.627 175.74 520.61 175.775L517.041 182.602C516.857 182.949 516.785 183.345 516.834 183.734C516.883 184.124 517.051 184.489 517.315 184.78C517.579 185.071 517.926 185.274 518.31 185.36C518.693 185.447 519.093 185.413 519.457 185.264L526.627 182.368C526.663 182.353 526.702 182.349 526.739 182.357C526.777 182.365 526.811 182.384 526.838 182.412L532.242 187.944C532.509 188.233 532.859 188.432 533.244 188.513C533.629 188.593 534.03 188.552 534.391 188.395C534.749 188.237 535.049 187.971 535.251 187.635C535.452 187.299 535.544 186.909 535.514 186.519L534.976 178.804C534.973 178.765 534.982 178.726 535.001 178.693C535.021 178.659 535.05 178.632 535.086 178.616L542.051 175.149Z" fill="#FFA9C8"/>
</g>
<g clip-path="url(#clip1)">
<path d="M213.051 426.149C213.413 425.981 213.713 425.705 213.91 425.357C214.107 425.01 214.19 424.61 214.149 424.213C214.107 423.816 213.941 423.443 213.676 423.144C213.411 422.846 213.059 422.638 212.67 422.55L205.145 420.673C205.108 420.663 205.075 420.642 205.05 420.613C205.025 420.585 205.009 420.549 205.003 420.512L203.866 412.883C203.81 412.495 203.636 412.134 203.368 411.848C203.099 411.562 202.75 411.366 202.366 411.286C201.983 411.205 201.584 411.245 201.224 411.399C200.863 411.552 200.559 411.813 200.352 412.146L196.25 418.703C196.229 418.735 196.2 418.761 196.166 418.777C196.131 418.793 196.092 418.799 196.055 418.794L188.409 417.49C188.017 417.415 187.612 417.464 187.249 417.631C186.887 417.797 186.585 418.073 186.387 418.42C186.19 418.767 186.105 419.166 186.146 419.563C186.187 419.96 186.351 420.335 186.615 420.634L191.585 426.559C191.61 426.588 191.625 426.624 191.63 426.663C191.634 426.701 191.627 426.74 191.61 426.775L188.041 433.602C187.857 433.949 187.785 434.345 187.834 434.734C187.883 435.124 188.051 435.489 188.315 435.78C188.579 436.071 188.926 436.274 189.31 436.36C189.693 436.447 190.093 436.413 190.457 436.264L197.627 433.368C197.663 433.353 197.702 433.349 197.739 433.357C197.777 433.365 197.811 433.384 197.838 433.412L203.242 438.944C203.509 439.233 203.859 439.432 204.244 439.513C204.629 439.593 205.03 439.552 205.391 439.395C205.749 439.237 206.049 438.971 206.251 438.635C206.452 438.299 206.544 437.909 206.514 437.519L205.976 429.804C205.973 429.765 205.982 429.726 206.001 429.693C206.021 429.659 206.05 429.632 206.086 429.616L213.051 426.149Z" fill="#FFEEF3"/>
</g>
<g clip-path="url(#clip2)">
<path d="M573.051 445.149C573.413 444.981 573.713 444.705 573.91 444.357C574.107 444.01 574.19 443.61 574.149 443.213C574.107 442.816 573.941 442.443 573.676 442.144C573.411 441.846 573.059 441.638 572.67 441.55L565.145 439.673C565.108 439.663 565.075 439.642 565.05 439.613C565.025 439.585 565.009 439.549 565.003 439.512L563.866 431.883C563.81 431.495 563.636 431.134 563.368 430.848C563.099 430.562 562.75 430.366 562.366 430.286C561.983 430.205 561.584 430.245 561.224 430.399C560.863 430.552 560.559 430.813 560.352 431.146L556.25 437.703C556.229 437.735 556.2 437.761 556.166 437.777C556.131 437.793 556.092 437.799 556.055 437.794L548.409 436.49C548.017 436.415 547.612 436.464 547.249 436.631C546.887 436.797 546.585 437.073 546.387 437.42C546.19 437.767 546.105 438.166 546.146 438.563C546.187 438.96 546.351 439.335 546.615 439.634L551.585 445.559C551.61 445.588 551.625 445.624 551.63 445.663C551.634 445.701 551.627 445.74 551.61 445.775L548.041 452.602C547.857 452.949 547.785 453.345 547.834 453.734C547.883 454.124 548.051 454.489 548.315 454.78C548.579 455.071 548.926 455.274 549.31 455.36C549.693 455.447 550.093 455.413 550.457 455.264L557.627 452.368C557.663 452.353 557.702 452.349 557.739 452.357C557.777 452.365 557.811 452.384 557.838 452.412L563.242 457.944C563.509 458.233 563.859 458.432 564.244 458.513C564.629 458.593 565.03 458.552 565.391 458.395C565.749 458.237 566.049 457.971 566.251 457.635C566.452 457.299 566.544 456.909 566.514 456.519L565.976 448.804C565.973 448.765 565.982 448.726 566.001 448.693C566.021 448.659 566.05 448.632 566.086 448.616L573.051 445.149Z" fill="#722C5B" fill-opacity="0.8"/>
</g>
<g clip-path="url(#clip3)">
<path d="M944.642 169.572C944.908 169.274 945.074 168.901 945.117 168.504C945.16 168.107 945.078 167.707 944.882 167.359C944.687 167.012 944.387 166.734 944.025 166.565C943.664 166.396 943.258 166.345 942.866 166.418L935.213 167.678C935.175 167.683 935.137 167.677 935.102 167.66C935.068 167.644 935.039 167.618 935.019 167.585L930.951 161.032C930.746 160.698 930.443 160.435 930.084 160.28C929.724 160.124 929.325 160.082 928.941 160.16C928.558 160.238 928.207 160.433 927.937 160.717C927.667 161.001 927.491 161.361 927.433 161.748L926.265 169.394C926.259 169.432 926.243 169.467 926.218 169.496C926.192 169.524 926.159 169.545 926.122 169.555L918.587 171.388C918.197 171.474 917.844 171.68 917.577 171.977C917.31 172.274 917.143 172.646 917.099 173.043C917.054 173.44 917.135 173.84 917.33 174.189C917.525 174.537 917.824 174.815 918.185 174.985L925.096 178.455C925.131 178.473 925.159 178.5 925.179 178.533C925.198 178.567 925.207 178.605 925.205 178.644L924.634 186.327C924.603 186.718 924.693 187.11 924.893 187.448C925.092 187.786 925.391 188.055 925.749 188.218C926.106 188.38 926.505 188.428 926.892 188.356C927.278 188.284 927.632 188.094 927.907 187.813L933.342 182.312C933.369 182.285 933.403 182.266 933.441 182.258C933.479 182.25 933.518 182.254 933.553 182.269L940.707 185.207C941.067 185.366 941.467 185.41 941.853 185.331C942.238 185.253 942.59 185.056 942.859 184.769C943.125 184.481 943.295 184.119 943.347 183.73C943.399 183.342 943.329 182.948 943.147 182.601L939.595 175.731C939.577 175.697 939.569 175.658 939.574 175.619C939.579 175.58 939.595 175.544 939.621 175.515L944.642 169.572Z" fill="#5EBDE4"/>
</g>
<g clip-path="url(#clip4)">
<path d="M737.051 512.149C737.413 511.981 737.713 511.705 737.91 511.357C738.107 511.01 738.19 510.61 738.148 510.213C738.107 509.816 737.941 509.443 737.676 509.144C737.411 508.846 737.059 508.638 736.67 508.55L729.145 506.673C729.108 506.663 729.075 506.642 729.05 506.613C729.025 506.585 729.009 506.549 729.003 506.512L727.866 498.883C727.81 498.495 727.636 498.134 727.368 497.848C727.099 497.562 726.75 497.366 726.366 497.286C725.983 497.205 725.584 497.245 725.224 497.399C724.863 497.552 724.559 497.813 724.352 498.146L720.25 504.703C720.229 504.735 720.2 504.761 720.165 504.777C720.131 504.793 720.092 504.799 720.054 504.794L712.409 503.49C712.017 503.415 711.612 503.464 711.249 503.631C710.887 503.797 710.585 504.073 710.387 504.42C710.19 504.767 710.105 505.166 710.146 505.563C710.187 505.96 710.351 506.335 710.615 506.634L715.585 512.559C715.61 512.588 715.625 512.624 715.63 512.663C715.634 512.701 715.627 512.74 715.61 512.775L712.041 519.602C711.857 519.949 711.785 520.345 711.834 520.734C711.883 521.124 712.051 521.489 712.315 521.78C712.579 522.071 712.926 522.274 713.309 522.36C713.693 522.447 714.093 522.413 714.457 522.264L721.627 519.368C721.663 519.353 721.702 519.349 721.739 519.357C721.777 519.365 721.811 519.384 721.838 519.412L727.242 524.944C727.509 525.233 727.859 525.432 728.244 525.513C728.629 525.593 729.03 525.552 729.391 525.395C729.749 525.237 730.049 524.971 730.251 524.635C730.452 524.299 730.544 523.909 730.514 523.519L729.976 515.804C729.973 515.765 729.982 515.726 730.001 515.693C730.021 515.659 730.05 515.632 730.086 515.616L737.051 512.149Z" fill="#FFEEF3"/>
</g>
<g clip-path="url(#clip5)">
<path d="M378.051 253.149C378.413 252.981 378.713 252.705 378.91 252.357C379.107 252.01 379.19 251.61 379.149 251.213C379.107 250.816 378.941 250.443 378.676 250.144C378.411 249.846 378.059 249.638 377.67 249.55L370.145 247.673C370.108 247.663 370.075 247.642 370.05 247.613C370.025 247.585 370.009 247.549 370.003 247.512L368.866 239.883C368.81 239.495 368.636 239.134 368.368 238.848C368.099 238.562 367.75 238.366 367.366 238.286C366.983 238.205 366.584 238.245 366.224 238.399C365.863 238.552 365.559 238.813 365.352 239.146L361.25 245.703C361.229 245.735 361.2 245.761 361.166 245.777C361.131 245.793 361.092 245.799 361.055 245.794L353.409 244.49C353.017 244.415 352.612 244.464 352.249 244.631C351.887 244.797 351.585 245.073 351.387 245.42C351.19 245.767 351.105 246.166 351.146 246.563C351.187 246.96 351.351 247.335 351.615 247.634L356.585 253.559C356.61 253.588 356.625 253.624 356.63 253.663C356.634 253.701 356.627 253.74 356.61 253.775L353.041 260.602C352.857 260.949 352.785 261.345 352.834 261.734C352.883 262.124 353.051 262.489 353.315 262.78C353.579 263.071 353.926 263.274 354.31 263.36C354.693 263.447 355.093 263.413 355.457 263.264L362.627 260.368C362.663 260.353 362.702 260.349 362.739 260.357C362.777 260.365 362.811 260.384 362.838 260.412L368.242 265.944C368.509 266.233 368.859 266.432 369.244 266.513C369.629 266.593 370.03 266.552 370.391 266.395C370.749 266.237 371.049 265.971 371.251 265.635C371.452 265.299 371.544 264.909 371.514 264.519L370.976 256.804C370.973 256.765 370.982 256.726 371.001 256.693C371.021 256.659 371.05 256.632 371.086 256.616L378.051 253.149Z" fill="#F1ECCC"/>
</g>
<g clip-path="url(#clip6)">
<path d="M74.0507 339.149C74.4128 338.981 74.7134 338.705 74.9103 338.357C75.1072 338.01 75.1905 337.61 75.1485 337.213C75.1066 336.816 74.9415 336.443 74.6763 336.144C74.4112 335.846 74.0594 335.638 73.6702 335.55L66.1451 333.673C66.1084 333.663 66.0754 333.642 66.0502 333.613C66.025 333.585 66.0086 333.549 66.0031 333.512L64.8661 325.883C64.8099 325.495 64.6359 325.134 64.3677 324.848C64.0994 324.562 63.7499 324.366 63.3664 324.286C62.9829 324.205 62.584 324.245 62.2236 324.399C61.8632 324.552 61.5588 324.813 61.3516 325.146L57.2496 331.703C57.2293 331.735 57.2001 331.761 57.1655 331.777C57.1309 331.793 57.0924 331.799 57.0545 331.794L49.4093 330.49C49.0175 330.415 48.6118 330.464 48.2492 330.631C47.8866 330.797 47.5852 331.073 47.3874 331.42C47.1896 331.767 47.1052 332.166 47.1461 332.563C47.187 332.96 47.3511 333.335 47.6154 333.634L52.585 339.559C52.6098 339.588 52.6255 339.624 52.6299 339.663C52.6344 339.701 52.6274 339.74 52.61 339.775L49.0408 346.602C48.8572 346.949 48.7851 347.345 48.8342 347.734C48.8833 348.124 49.0512 348.489 49.3152 348.78C49.5792 349.071 49.9264 349.274 50.3095 349.36C50.6927 349.447 51.0932 349.413 51.4566 349.264L58.6272 346.368C58.6627 346.353 58.7018 346.349 58.7394 346.357C58.7771 346.365 58.8114 346.384 58.8379 346.412L64.2417 351.944C64.5088 352.233 64.8592 352.432 65.2444 352.513C65.6295 352.593 66.0302 352.552 66.3908 352.395C66.7491 352.237 67.0494 351.971 67.2506 351.635C67.4518 351.299 67.544 350.909 67.5144 350.519L66.9761 342.804C66.9728 342.765 66.9816 342.726 67.0012 342.693C67.0209 342.659 67.0504 342.632 67.0859 342.616L74.0507 339.149Z" fill="#F1ECCC"/>
</g>
<g clip-path="url(#clip7)">
<path d="M720.408 93.2114L700.833 97.313C700.588 97.3642 700.405 97.6075 700.283 98.0427C700.162 98.478 700.155 98.9556 700.264 99.4755C700.373 99.9955 700.571 100.43 700.857 100.78C701.143 101.13 701.408 101.279 701.653 101.228L721.228 97.1264C721.473 97.0751 721.656 96.8319 721.777 96.3966C721.899 95.9614 721.905 95.4838 721.797 94.9638C721.688 94.4439 721.49 94.009 721.204 93.6592C720.918 93.3094 720.652 93.1601 720.408 93.2114ZM696.368 80.8794C695.827 80.9926 695.406 81.2804 695.104 81.7429C694.802 82.2053 694.707 82.7067 694.82 83.247C694.934 83.7874 695.221 84.2087 695.684 84.5109C696.146 84.8131 696.648 84.9076 697.188 84.7944L700.664 95.2889L719.75 91.2899L718.72 80.2826C719.261 80.1694 719.682 79.8816 719.984 79.4192C720.286 78.9567 720.381 78.4553 720.268 77.915C720.154 77.3746 719.867 76.9534 719.404 76.6511C718.942 76.3489 718.44 76.2544 717.9 76.3676C717.36 76.4809 716.938 76.7687 716.636 77.2311C716.334 77.6936 716.239 78.1949 716.353 78.7353C716.472 79.3062 716.782 79.7416 717.281 80.0415C716.112 82.234 715.309 83.6607 714.873 84.3215C714.437 84.9823 714.035 85.3512 713.668 85.4281C713.322 85.5007 712.827 85.2504 712.186 84.6771C711.544 84.1038 710.387 82.8962 708.713 81.0545C708.962 80.8214 709.14 80.5393 709.246 80.2084C709.352 79.8775 709.369 79.5387 709.296 79.1921C709.183 78.6518 708.895 78.2305 708.433 77.9283C707.971 77.626 707.469 77.5315 706.929 77.6448C706.388 77.758 705.967 78.0458 705.665 78.5082C705.363 78.9707 705.268 79.4721 705.381 80.0124C705.454 80.3591 705.605 80.6626 705.836 80.923C706.066 81.1834 706.342 81.3704 706.664 81.4839C705.87 83.8426 705.294 85.4133 704.937 86.1959C704.579 86.9786 704.227 87.4062 703.881 87.4789C703.514 87.5558 702.998 87.3792 702.333 86.9491C701.668 86.519 700.36 85.5345 698.409 83.9956C698.746 83.5206 698.855 82.9976 698.735 82.4267C698.622 81.8864 698.334 81.4651 697.872 81.1629C697.409 80.8607 696.908 80.7662 696.368 80.8794Z" fill="#FFA9C8"/>
</g>
<g clip-path="url(#clip8)">
<path d="M787.611 331.775L769.379 323.554C769.151 323.451 768.86 323.54 768.505 323.82C768.15 324.099 767.864 324.482 767.645 324.966C767.427 325.45 767.33 325.918 767.355 326.369C767.38 326.82 767.507 327.097 767.735 327.2L785.967 335.421C786.195 335.524 786.486 335.436 786.841 335.156C787.196 334.876 787.482 334.494 787.701 334.009C787.919 333.525 788.016 333.057 787.991 332.606C787.966 332.155 787.839 331.878 787.611 331.775ZM775.456 307.645C774.952 307.418 774.442 307.403 773.926 307.598C773.409 307.794 773.037 308.143 772.81 308.646C772.583 309.15 772.568 309.66 772.763 310.176C772.959 310.693 773.308 311.065 773.811 311.292L770.436 321.819L788.212 329.835L793.867 320.335C794.37 320.562 794.88 320.578 795.397 320.382C795.913 320.187 796.285 319.837 796.512 319.334C796.739 318.831 796.755 318.321 796.559 317.804C796.364 317.288 796.014 316.916 795.511 316.689C795.008 316.462 794.498 316.446 793.981 316.642C793.464 316.837 793.093 317.187 792.866 317.69C792.626 318.222 792.619 318.756 792.846 319.292C790.609 320.375 789.12 321.054 788.378 321.331C787.636 321.608 787.095 321.669 786.753 321.515C786.43 321.37 786.178 320.876 785.998 320.035C785.817 319.194 785.593 317.536 785.326 315.062C785.665 315.02 785.975 314.897 786.256 314.692C786.537 314.487 786.75 314.224 786.895 313.901C787.122 313.398 787.138 312.888 786.943 312.371C786.747 311.854 786.398 311.482 785.894 311.255C785.391 311.029 784.881 311.013 784.364 311.208C783.848 311.404 783.476 311.753 783.249 312.257C783.103 312.579 783.047 312.914 783.079 313.26C783.112 313.606 783.225 313.92 783.418 314.201C781.387 315.639 779.996 316.569 779.246 316.99C778.496 317.412 777.96 317.55 777.637 317.405C777.295 317.25 776.982 316.804 776.698 316.064C776.415 315.325 775.938 313.759 775.269 311.366C775.821 311.181 776.217 310.822 776.457 310.291C776.684 309.787 776.699 309.277 776.504 308.761C776.308 308.244 775.959 307.872 775.456 307.645Z" fill="#5EBDE4"/>
</g>
<g clip-path="url(#clip9)">
<path d="M275.408 19.2114L255.833 23.313C255.588 23.3642 255.405 23.6075 255.283 24.0427C255.162 24.478 255.155 24.9556 255.264 25.4755C255.373 25.9955 255.571 26.4304 255.857 26.7802C256.143 27.13 256.408 27.2792 256.653 27.228L276.228 23.1264C276.473 23.0751 276.656 22.8319 276.777 22.3966C276.899 21.9614 276.905 21.4838 276.797 20.9638C276.688 20.4439 276.49 20.009 276.204 19.6592C275.918 19.3094 275.652 19.1601 275.408 19.2114ZM251.368 6.87938C250.827 6.9926 250.406 7.28043 250.104 7.74286C249.802 8.20529 249.707 8.70668 249.82 9.24703C249.934 9.78738 250.221 10.2087 250.684 10.5109C251.146 10.8131 251.648 10.9076 252.188 10.7944L255.664 21.2889L274.75 17.2899L273.72 6.28263C274.261 6.16941 274.682 5.88159 274.984 5.41915C275.286 4.95672 275.381 4.45533 275.268 3.91498C275.154 3.37463 274.867 2.95335 274.404 2.65114C273.942 2.34893 273.44 2.25443 272.9 2.36765C272.36 2.48087 271.938 2.7687 271.636 3.23113C271.334 3.69356 271.239 4.19495 271.353 4.7353C271.472 5.30623 271.782 5.74162 272.281 6.04145C271.112 8.23403 270.309 9.66072 269.873 10.3215C269.437 10.9823 269.035 11.3512 268.668 11.4281C268.322 11.5007 267.827 11.2504 267.186 10.6771C266.544 10.1038 265.387 8.89623 263.713 7.05449C263.962 6.82136 264.14 6.53934 264.246 6.20843C264.352 5.87752 264.369 5.53874 264.296 5.1921C264.183 4.65175 263.895 4.23047 263.433 3.92826C262.971 3.62604 262.469 3.53155 261.929 3.64477C261.388 3.75799 260.967 4.04582 260.665 4.50825C260.363 4.97068 260.268 5.47207 260.381 6.01242C260.454 6.35906 260.605 6.66258 260.836 6.923C261.066 7.18341 261.342 7.37037 261.664 7.48388C260.87 9.84259 260.294 11.4133 259.937 12.1959C259.579 12.9786 259.227 13.4062 258.881 13.4789C258.514 13.5558 257.998 13.3792 257.333 12.9491C256.668 12.519 255.36 11.5345 253.409 9.99562C253.746 9.52062 253.855 8.99765 253.735 8.42671C253.622 7.88636 253.334 7.46508 252.872 7.16287C252.409 6.86066 251.908 6.76616 251.368 6.87938Z" fill="#FFA9C8"/>
</g>
<g clip-path="url(#clip10)">
<path d="M1108.27 54.4357L1090.5 45.258C1090.28 45.1433 1089.98 45.2163 1089.61 45.477C1089.25 45.7377 1088.94 46.1041 1088.69 46.5761C1088.45 47.0481 1088.33 47.5101 1088.33 47.962C1088.33 48.4139 1088.44 48.6973 1088.67 48.812L1106.44 57.9897C1106.66 58.1044 1106.95 58.0314 1107.32 57.7707C1107.69 57.51 1108 57.1436 1108.24 56.6716C1108.49 56.1996 1108.61 55.7376 1108.61 55.2857C1108.6 54.8338 1108.49 54.5505 1108.27 54.4357ZM1097.41 29.6947C1096.92 29.4414 1096.41 29.3986 1095.89 29.5664C1095.36 29.7342 1094.97 30.0634 1094.72 30.5539C1094.47 31.0444 1094.42 31.5529 1094.59 32.0792C1094.76 32.6055 1095.09 32.9953 1095.58 33.2487L1091.65 43.5818L1108.97 52.5301L1115.12 43.3442C1115.62 43.5975 1116.12 43.6403 1116.65 43.4725C1117.18 43.3047 1117.57 42.9755 1117.82 42.485C1118.07 41.9944 1118.12 41.486 1117.95 40.9597C1117.78 40.4334 1117.45 40.0435 1116.96 39.7902C1116.47 39.5369 1115.96 39.4941 1115.44 39.6619C1114.91 39.8297 1114.52 40.1589 1114.27 40.6494C1114 41.1677 1113.96 41.7007 1114.16 42.2484C1111.87 43.2107 1110.35 43.8104 1109.59 44.0474C1108.84 44.2845 1108.29 44.3169 1107.96 44.1448C1107.64 43.9823 1107.42 43.4762 1107.28 42.6265C1107.15 41.7768 1107.01 40.1095 1106.88 37.6246C1107.22 37.6011 1107.53 37.4946 1107.82 37.305C1108.12 37.1155 1108.34 36.8634 1108.51 36.5487C1108.76 36.0582 1108.8 35.5498 1108.63 35.0235C1108.47 34.4971 1108.14 34.1073 1107.65 33.854C1107.16 33.6006 1106.65 33.5578 1106.12 33.7257C1105.59 33.8935 1105.2 34.2226 1104.95 34.7132C1104.79 35.0278 1104.71 35.3588 1104.73 35.7061C1104.74 36.0534 1104.84 36.3726 1105.02 36.6638C1102.91 37.9919 1101.47 38.8466 1100.7 39.2279C1099.93 39.6091 1099.39 39.7185 1099.07 39.556C1098.74 39.3839 1098.45 38.9212 1098.21 38.1679C1097.96 37.4147 1097.57 35.8255 1097.03 33.4005C1097.59 33.2447 1098.01 32.9077 1098.27 32.3895C1098.53 31.8989 1098.57 31.3905 1098.4 30.8642C1098.23 30.3379 1097.9 29.948 1097.41 29.6947Z" fill="#F1ECCC"/>
</g>
<g clip-path="url(#clip11)">
<path d="M1163.41 490.211L1143.83 494.313C1143.59 494.364 1143.4 494.608 1143.28 495.043C1143.16 495.478 1143.16 495.956 1143.26 496.476C1143.37 496.996 1143.57 497.43 1143.86 497.78C1144.14 498.13 1144.41 498.279 1144.65 498.228L1164.23 494.126C1164.47 494.075 1164.66 493.832 1164.78 493.397C1164.9 492.961 1164.91 492.484 1164.8 491.964C1164.69 491.444 1164.49 491.009 1164.2 490.659C1163.92 490.309 1163.65 490.16 1163.41 490.211ZM1139.37 477.879C1138.83 477.993 1138.41 478.28 1138.1 478.743C1137.8 479.205 1137.71 479.707 1137.82 480.247C1137.93 480.787 1138.22 481.209 1138.68 481.511C1139.15 481.813 1139.65 481.908 1140.19 481.794L1143.66 492.289L1162.75 488.29L1161.72 477.283C1162.26 477.169 1162.68 476.882 1162.98 476.419C1163.29 475.957 1163.38 475.455 1163.27 474.915C1163.15 474.375 1162.87 473.953 1162.4 473.651C1161.94 473.349 1161.44 473.254 1160.9 473.368C1160.36 473.481 1159.94 473.769 1159.64 474.231C1159.33 474.694 1159.24 475.195 1159.35 475.735C1159.47 476.306 1159.78 476.742 1160.28 477.041C1159.11 479.234 1158.31 480.661 1157.87 481.322C1157.44 481.982 1157.04 482.351 1156.67 482.428C1156.32 482.501 1155.83 482.25 1155.19 481.677C1154.54 481.104 1153.39 479.896 1151.71 478.054C1151.96 477.821 1152.14 477.539 1152.25 477.208C1152.35 476.878 1152.37 476.539 1152.3 476.192C1152.18 475.652 1151.9 475.23 1151.43 474.928C1150.97 474.626 1150.47 474.532 1149.93 474.645C1149.39 474.758 1148.97 475.046 1148.66 475.508C1148.36 475.971 1148.27 476.472 1148.38 477.012C1148.45 477.359 1148.61 477.663 1148.84 477.923C1149.07 478.183 1149.34 478.37 1149.66 478.484C1148.87 480.843 1148.29 482.413 1147.94 483.196C1147.58 483.979 1147.23 484.406 1146.88 484.479C1146.51 484.556 1146 484.379 1145.33 483.949C1144.67 483.519 1143.36 482.535 1141.41 480.996C1141.75 480.521 1141.85 479.998 1141.74 479.427C1141.62 478.886 1141.33 478.465 1140.87 478.163C1140.41 477.861 1139.91 477.766 1139.37 477.879Z" fill="#5EBDE4" fill-opacity="0.5"/>
</g>
<g clip-path="url(#clip12)">
<path d="M181.334 210.327L161.423 208.45C161.174 208.427 160.927 208.605 160.682 208.985C160.437 209.364 160.289 209.819 160.239 210.348C160.189 210.877 160.249 211.35 160.419 211.769C160.589 212.188 160.798 212.409 161.047 212.433L180.959 214.309C181.208 214.333 181.455 214.155 181.7 213.775C181.945 213.395 182.092 212.941 182.142 212.412C182.192 211.883 182.132 211.409 181.962 210.99C181.793 210.571 181.583 210.35 181.334 210.327ZM162.022 191.432C161.472 191.38 160.985 191.53 160.559 191.882C160.134 192.234 159.895 192.685 159.843 193.235C159.791 193.785 159.942 194.272 160.294 194.698C160.646 195.123 161.097 195.362 161.647 195.414L161.861 206.467L181.275 208.297L183.55 197.478C184.099 197.53 184.587 197.38 185.012 197.027C185.438 196.675 185.677 196.224 185.728 195.674C185.78 195.125 185.63 194.637 185.278 194.212C184.926 193.786 184.475 193.547 183.925 193.496C183.375 193.444 182.888 193.594 182.462 193.946C182.037 194.299 181.798 194.75 181.746 195.299C181.691 195.88 181.858 196.387 182.246 196.822C180.481 198.57 179.292 199.695 178.679 200.197C178.067 200.699 177.574 200.933 177.201 200.897C176.848 200.864 176.45 200.479 176.007 199.741C175.564 199.004 174.816 197.508 173.762 195.253C174.069 195.104 174.322 194.887 174.522 194.603C174.721 194.318 174.838 193.999 174.871 193.647C174.923 193.097 174.772 192.61 174.42 192.184C174.068 191.758 173.617 191.52 173.067 191.468C172.518 191.416 172.03 191.566 171.604 191.919C171.179 192.271 170.94 192.722 170.888 193.272C170.855 193.624 170.91 193.959 171.053 194.276C171.196 194.593 171.404 194.853 171.678 195.057C170.221 197.075 169.207 198.405 168.634 199.046C168.06 199.688 167.598 199.992 167.245 199.959C166.872 199.924 166.431 199.603 165.923 198.995C165.416 198.387 164.458 197.06 163.05 195.013C163.512 194.658 163.771 194.191 163.825 193.61C163.877 193.061 163.727 192.573 163.375 192.148C163.023 191.722 162.572 191.483 162.022 191.432Z" fill="#5EBDE4" fill-opacity="0.5"/>
</g>
<path d="M1202.24 173.03C1202.6 172.861 1202.9 172.584 1203.1 172.235C1203.29 171.887 1203.38 171.485 1203.34 171.086C1203.29 170.688 1203.13 170.313 1202.86 170.013C1202.6 169.714 1202.25 169.505 1201.86 169.417L1194.33 167.532C1194.3 167.522 1194.26 167.501 1194.24 167.472C1194.21 167.444 1194.2 167.408 1194.19 167.37L1193.05 159.711C1193 159.322 1192.82 158.959 1192.55 158.672C1192.29 158.386 1191.94 158.189 1191.55 158.108C1191.17 158.027 1190.77 158.067 1190.41 158.221C1190.05 158.376 1189.75 158.637 1189.54 158.971L1185.44 165.554C1185.42 165.587 1185.39 165.613 1185.35 165.629C1185.32 165.645 1185.28 165.651 1185.24 165.646L1177.6 164.337C1177.2 164.261 1176.8 164.31 1176.44 164.478C1176.07 164.645 1175.77 164.922 1175.57 165.27C1175.38 165.618 1175.29 166.02 1175.33 166.418C1175.37 166.817 1175.54 167.192 1175.8 167.493L1180.77 173.441C1180.8 173.471 1180.81 173.507 1180.82 173.546C1180.82 173.584 1180.81 173.623 1180.8 173.658L1177.23 180.512C1177.04 180.861 1176.97 181.258 1177.02 181.649C1177.07 182.04 1177.24 182.407 1177.5 182.699C1177.77 182.991 1178.11 183.194 1178.5 183.281C1178.88 183.368 1179.28 183.334 1179.64 183.185L1186.81 180.277C1186.85 180.262 1186.89 180.259 1186.93 180.267C1186.96 180.275 1187 180.294 1187.02 180.322L1192.43 185.876C1192.7 186.166 1193.05 186.365 1193.43 186.446C1193.82 186.527 1194.22 186.486 1194.58 186.328C1194.94 186.169 1195.24 185.903 1195.44 185.565C1195.64 185.228 1195.73 184.836 1195.7 184.444L1195.16 176.699C1195.16 176.66 1195.17 176.621 1195.19 176.587C1195.21 176.554 1195.24 176.527 1195.27 176.51L1202.24 173.03Z" fill="#722C5B" fill-opacity="0.5"/>
<path d="M30.3737 50.8928C30.5907 50.5575 30.6971 50.1622 30.6783 49.7624C30.6594 49.3625 30.5161 48.9782 30.2684 48.6633C30.0208 48.3483 29.6812 48.1186 29.2973 48.0062C28.9135 47.8939 28.5046 47.9045 28.1279 48.0368L20.7549 50.4483C20.7183 50.459 20.6793 50.4589 20.6426 50.4479C20.6059 50.4369 20.5731 50.4156 20.5482 50.3864L15.5081 44.5084C15.2533 44.2088 14.913 43.9945 14.5332 43.8946C14.1535 43.7947 13.7527 43.8139 13.3851 43.9498C13.0175 44.0856 12.7009 44.3315 12.478 44.6541C12.2552 44.9767 12.137 45.3605 12.1394 45.7534L12.1718 53.5097C12.1719 53.548 12.161 53.5855 12.1403 53.6177C12.1197 53.6499 12.0901 53.6753 12.0553 53.691L4.88696 56.6535C4.51488 56.798 4.19769 57.0556 3.97986 57.3904C3.76203 57.7251 3.65448 58.1201 3.67229 58.52C3.6901 58.9198 3.83239 59.3046 4.07919 59.6202C4.32599 59.9358 4.66494 60.1664 5.0485 60.2798L12.422 62.6692C12.4589 62.6812 12.4916 62.7037 12.5159 62.734C12.5402 62.7643 12.5552 62.8011 12.5589 62.8398L13.1867 70.5419C13.2169 70.9348 13.3672 71.3092 13.617 71.6143C13.8669 71.9193 14.2043 72.1402 14.5832 72.2469C14.9621 72.3536 15.3643 72.3408 15.7349 72.2104C16.1055 72.08 16.4266 71.8382 16.6545 71.518L21.1765 65.2393C21.1985 65.2078 21.2297 65.1837 21.2657 65.1704C21.3018 65.1571 21.3411 65.1551 21.3784 65.1647L28.9096 66.9889C29.2901 67.0923 29.693 67.0746 30.0621 66.9382C30.4313 66.8017 30.7485 66.5534 30.9696 66.2276C31.1883 65.9024 31.3007 65.517 31.2915 65.1244C31.2822 64.7317 31.1517 64.3512 30.9179 64.0351L26.3388 57.7656C26.3152 57.7343 26.3019 57.6966 26.3005 57.6575C26.2992 57.6184 26.3099 57.5799 26.3312 57.5472L30.3737 50.8928Z" fill="#722C5B" fill-opacity="0.5"/>
</g>
<defs>
<clipPath id="clip0">
<rect width="31" height="31" fill="white" transform="translate(516.36 155) rotate(11.8397)"/>
</clipPath>
<clipPath id="clip1">
<rect width="31" height="31" fill="white" transform="translate(187.36 406) rotate(11.8397)"/>
</clipPath>
<clipPath id="clip2">
<rect width="31" height="31" fill="white" transform="translate(547.36 425) rotate(11.8397)"/>
</clipPath>
<clipPath id="clip3">
<rect width="31" height="31" fill="white" transform="translate(913.069 161.255) rotate(-11.5092)"/>
</clipPath>
<clipPath id="clip4">
<rect width="31" height="31" fill="white" transform="translate(711.36 492) rotate(11.8397)"/>
</clipPath>
<clipPath id="clip5">
<rect width="31" height="31" fill="white" transform="translate(352.36 233) rotate(11.8397)"/>
</clipPath>
<clipPath id="clip6">
<rect width="31" height="31" fill="white" transform="translate(48.3604 319) rotate(11.8397)"/>
</clipPath>
<clipPath id="clip7">
<rect width="26" height="23" fill="white" transform="translate(694 79.332) rotate(-11.8341)"/>
</clipPath>
<clipPath id="clip8">
<rect width="26" height="23" fill="white" transform="translate(774.455 305) rotate(24.2718)"/>
</clipPath>
<clipPath id="clip9">
<rect width="26" height="23" fill="white" transform="translate(249 5.33203) rotate(-11.8341)"/>
</clipPath>
<clipPath id="clip10">
<rect width="26" height="23" fill="white" transform="translate(1096.55 27) rotate(27.3153)"/>
</clipPath>
<clipPath id="clip11">
<rect width="26" height="23" fill="white" transform="translate(1137 476.332) rotate(-11.8341)"/>
</clipPath>
<clipPath id="clip12">
<rect width="26" height="23" fill="white" transform="translate(160.218 189.253) rotate(5.3836)"/>
</clipPath>
</defs>
</svg>
