<svg  version="1.1" xmlns="http://www.w3.org/2000/svg" xmlns:xlink="http://www.w3.org/1999/xlink">
  <symbol id="promofon" viewBox="0 0 397 405">
    <path id="promofon" d="M239.17 12.641C287.416 27.6882 320.778 66.7817 348.693 108.861C376.385 150.605 406.556 197.611 394.021 246.069C381.833 293.182 329.285 312.048 289.036 339.473C248.217 367.285 210.974 410.834 161.99 404.169C111.718 397.329 80.9673 349.087 52.3193 307.265C23.3061 264.91 -3.92945 219.607 0.560835 168.508C5.51692 112.109 29.7546 55.1757 77.1948 24.1862C124.271 -6.56555 185.446 -4.11437 239.17 12.641Z"/>
  </symbol>
  <symbol id="promo-photo" viewBox="0 0 411 431" >
   <path d="M506.757 494.818C442.82 556.403 367.347 625.585 281.492 603.013C197.781 581.005 183.61 472.348 134.092 401.356C86.4924 333.113 -9.1187 283.857 1.29901 201.309C11.7688 118.347 105.916 78.0629 179.828 38.9558C240.888 6.6479 307.394 -5.5739 375.93 3.0873C447.144 12.0869 521.316 30.7055 565.034 87.636C609.573 145.634 609.031 223.009 600.597 295.648C591.697 372.295 551.35 442.352 506.757 494.818Z"/>
  </symbol>

    <view id="promofon-view" viewBox="0 0 397 405" />
    <use xlink:href="#promo/fon" style="fill: #FFEEF3;"></use>

    <view id="promo-photo-view" viewBox="0 0 411 431" />
    <use xlink:href="#prom/o-photo" style="fill: #d3d3d3;"></use>
</svg>