<svg viewBox="0 0 538 424" fill="none" xmlns="http://www.w3.org/2000/svg">
<path fill-rule="evenodd" clip-rule="evenodd" d="M341.824 7.08013C401.141 7.76839 473.165 -14.626 515.872 21.7914C558.435 58.0858 523.541 114.268 523.569 162.058C523.591 200.591 526.048 237.161 516.017 274.119C502.327 324.565 509.758 391.15 454.776 415.539C400.317 439.696 330.119 399.989 266.926 384.612C207.835 370.234 144.624 363.741 98.6263 328.878C50.5644 292.45 23.8632 242.036 11.7695 191.221C-0.659174 138.998 -12.7016 76.5447 29.9078 40.1347C72.3804 3.84157 150.978 24.9843 214.144 18.2904C257.576 13.6879 297.477 6.56555 341.824 7.08013Z" fill="#F3ADC8"/>
</svg>
