<svg width="408" height="410" viewBox="0 0 408 410" fill="none" xmlns="http://www.w3.org/2000/svg">
<path fill-rule="evenodd" clip-rule="evenodd" d="M75.9667 132.945C93.0829 104.397 127.252 82.8426 158.041 70.1128C188.873 57.3656 218.322 51.1966 250.308 60.8643C281.521 70.2981 303.111 94.9567 320.636 122.441C336.319 147.036 342.564 177.872 343.481 206.988C344.36 234.864 340.438 262.672 326.442 286.771C312.194 311.306 291.746 333.421 264.814 342.448C238.723 351.193 214.919 325.155 187.731 320.699C157.678 315.773 120.756 334.808 97.5794 315.036C73.1324 294.179 64.4872 260.466 60.7056 228.606C56.8018 195.715 58.953 161.323 75.9667 132.945Z" fill="#C4C4C4"/>
</svg>
