<svg width="420" height="421" viewBox="0 0 420 421" fill="none" xmlns="http://www.w3.org/2000/svg">
<path fill-rule="evenodd" clip-rule="evenodd" d="M311.318 103.403C334.786 127.009 347.285 165.426 352.06 198.399C356.842 231.418 355.586 261.479 338.356 290.11C321.543 318.049 292.336 332.919 261.389 343.154C233.694 352.314 202.269 350.791 173.821 344.527C146.583 338.53 120.591 327.896 100.669 308.409C80.3862 288.569 63.9733 263.315 61.8398 234.991C59.7729 207.551 90.8608 190.874 101.86 165.614C114.019 137.692 104.638 97.2247 129.499 79.6167C155.722 61.0432 190.526 60.9457 222.339 65.1077C255.18 69.4042 287.99 79.9391 311.318 103.403Z" fill="#C4C4C4"/>
</svg>
